<mxfile host="Electron" agent="Mozilla/5.0 (Macintosh; Intel Mac OS X 10_15_7) AppleWebKit/537.36 (KHTML, like Gecko) draw.io/26.2.2 Chrome/134.0.6998.178 Electron/35.1.2 Safari/537.36" version="26.2.2">
  <diagram name="Pagina-1" id="S9hXhyIfcNrgqosisQnq">
    <mxGraphModel dx="1639" dy="543" grid="1" gridSize="10" guides="1" tooltips="1" connect="1" arrows="1" fold="1" page="1" pageScale="1" pageWidth="827" pageHeight="1169" math="0" shadow="0">
      <root>
        <mxCell id="0" />
        <mxCell id="1" parent="0" />
        <mxCell id="L91rZKPYXiFvtfqMxjaK-1" value="" style="shape=image;verticalLabelPosition=bottom;labelBackgroundColor=default;verticalAlign=top;aspect=fixed;imageAspect=0;image=data:image/png,iVBORw0KGgoAAAANSUhEUgAAB4AAAAQ4CAMAAADfDTFxAAAAJFBMVEX///8AdIFDT1QDCAhSWVm4vb6foaKIhYB5srjm7u47jJXoqQUl4cfJAAAACXBIWXMAAAsTAAALEwEAmpwYAAAgAElEQVR42u3dB3bbSBAFQBgEBmHvf99FJjLBKIYqJ4oKluy3+90TuqMIAAAAAAAAAAAAAAAAAAAAAAAAAAAAAAAAAAAAAAAAAAAAAAAAAAAAAAAAAAAAAAAAAAAAAAAAAAAAAAAAAAAAAAAAAAAAAAAAAAAAAAAAAAAAAAAAAAAAAAAAAAAAAAAAAAAAAAAAAAAAAAAAAAAAAAAAAAAAAAAAAAAAAAAAAAAAAAAAAAAAAAAAAAAAAAAAAAAAAAAAAAAAAAAAAAAAAAAAAAAAAAAAAAAAAAAAAAAAAAAAAAAAAAAAAAAAAAAAAAAAAAAAAAAAAAAAAAAAAAAAAAAAAAAAAAAAAAAAAAAAAAAAAAAAAAAAAAAAAAAAAAAAAAAAAAAAAAAAAAAAAAAAgD9XpCHLkiTmZsmD+RNd/UPOspAW/oMFviV8M/+3f6/wFcIX/rwzIQx8vjTz//O3DF8hvC9L/ccLfHLxG/z//a3TVwbv1sHKYED8Sl8Z/BeCCAY+cvHZ/9U/JX5F8ObfgoVo4PPKX3u/H5S+Mnj7r0IRDCh/xa8I/guKYOCTBP/b/sD4FcF2ggHLz+JXBFuGBrg2f/0//HPjVwSv/rVIYED+il8RrAYGkL9fGb8iWA0M2P+Vv+NQfNxPElgNDETOP7Mfv8+pjS8nsr+Vicx/3ID8/Z38jS1Dv9FtJP95A++8AO1/05+//SuBtaUEPo//ZX9R/Ipg28CABejfy9/XD2OQwBahAQvQ8vd9doP9DcXaQgNvzw2k71p/lsBOQgMKYPkrgZXAAArgZ+Zv/FfbvZsXg/09KYEBBfDP17/xfb+ogZXAgAKY+K9r3/jgb+tvSgkMRO4A/1ABHP99MywJ7C4w8PZS/3P+rgNYsQS2Bg1YgZa/f10L+/uyBg1Ygf7CAI7freIVwNagASvQv1gAx8+ufmMl8K0EMCCA7QBbg7YGDWAL+NX5G68elnremra/MwEMRLaAvzeA45sXkOPdi0zxjevTsQCe/835jx14L/7H/Akr0OutP2IVsE1gINKH8tfy9602g2MJLICByBmsHyuA441n/uq+UiyAY604AAFsBfpP7yAJYAEMCGAB7CLS3wr+cwfeSfD/5UcGcCyABTCAAH6LCji+OBz4yvCOBbAABgSwAP7znd744qv8rQlgILIH/FX5+9h6+GnR7a9NAAMC+FsSOH7B7m+c7LbDii1BOwUNCGBL0G927EoAC2Ag0gnrBwN4tVNk/Fcbx/7WYp2wgEgv6F/ohKUPhwAGiExD+vlOHP7STEMCIvOAvzyA4+OVa/yqWtrfWWweMBA5haUEvjGcL039NYrBLSQgcgpL/l4burEFaIeggcgmMJ84ElgfLFvAQKQZpRr4+XeLFMC2gIHIJvDPBXB82/mr+ElXkGIBbAUasAatBH7w0vRdU5L8bVmBBqxBf20Cx2/QbUP9awUaUAIrgZ+VqtfXwv6uYm2wACWwc1h6YCmAAcYK/6N+VALHN8wavPpecHz4DVEAA0rg36uB4z/d/ZW/CmBACfy9CRz/+SmrnY/u7+j8l6UABiJ3ge0D2/+NtYEGiMxEenICx3eUvvEdlbS/H3eAAYvQv5HAf1wSx/LXAjRgEfrHa+D4sZd94+s/pr+aWBNKIHIS2lGsVzfK8vdiAxiIbAPbCH51JPtLcQMJkMAi+PK43ofvIPsrmeSvDWDg/RUS+Fk7wfH1xWwsfeUvoAbmaATHr2nFEctf+QtETmIRx2/RBUv8On8FRG4jieAXRG4sft0/AiIdOUSwzpPv9fchfwHL0CL4MVVuLH6vWH62/Qs4DS2C7z9iFSt+rzt9pfwFPlLq/+kftBLtj9zqM/BNEawKfn4EP6AHhz9s1S/wfQvRwf/db4/g+CXHof1Br/zR2/sFviGD08z/41+1FB1L3/v/yLNU8Qt8UQinIeMZ9vPVn891QpoqfQE4Iuzlrx5OAPCsnic7VHMAED3rqPlm/trKBIAXnDhviV0AEMAAIIABAAEMAAIYABDAACCAAQABDAACGAAEsAAGAAEMAAIYABDAACCAAQABDAACGAAQwAAggAFAAAtgABDAACCAAQABDAACGAAQwAAggAEAAQwAAhgAEMAAIIABQAADAAIYAAQwACCAAUAAAwACGAAEMAAggAFAAAOAAAYABDAACGAAQAADgAAGAAQwAAhgAEAAA4AABgABDAAIYAAQwACAAAYAAQwACGAAEMAAgAAGAAEMAAIYABDAACCAAQABDAACGAAQwAAggAEAAQwAAhgABDAAIIABQAADAAIYAAQwACCAAUAAAwACGAAEMAAIYAB4ifRWAhgA7gjgcCMBDAACWAADIIAFMABcCOAsZDd8D5kABoDbVXHa5Om13wQwANwVwCpgAQzAH1XAV4Zv/U4CGACiu/aAr1x8bn8VwADgFLQABkAAC2AAfkiR5te7NX/DDb9XXghgAL4tffN/N8luDeDbfru3zGABDMCL4/ffvzK77R5SdvNvWAhgAL5E+u9m7ZnmKy4g9Y9v/y1zAQzAV8iPJW1rWQFfcwXpfBF4rZZulB9XBAtgAJ6Wv1v52Je3+aGfQ/sorFbA7ccP5cctQwtgAJ6Wv008hmUFHG5rBR3WK+BwqAKu3lYAAxD9xv5vub4E/bhT0MeXoN9tH1gAA3C9Ud6VeVqk6UZFnP3XeGYAr/8O659ZIYAB+I4CeNhYXb+T9N9/q/n4uADO+t9he8t39JmVAhiAryiA8/1t4f8GyXMCODv/DjvLzek7lsACGICbC+B8/2DWKB7/e04jjv+2Ij4/8gkLYACiTzwCXW7vDM/j8b/Va0hXzwSe/QbJ6DfI9q4cDf82EMAAfK4+zebZUewEcLKogK8eCbysgLOtiN/8zAoBDMCnKjbLyfJgAD+qAt4M4GLrM0sFMACfHsDlpfYc20vQDzqEtbUEvf2Z5QIYgOjDz2Dll/pzJM8O4K1DWPkVn7MABuDbAvjf1iWhJ1xDyvZbXhUCGIDvDeD8TRpxlCpgAL43gMvLAZxlo/wtm2/djIbbTmFttaKc9YK2BwzAN/fhKC6cgj7PA25ekTfa2LxtGNLhecDF1s0pAQzAtzXCWpuRNJmGdA7gR1bAq/OWyqOfsgAG4ANHMUwLzaL8t1cBl3keRhXw9ZeAr6iANz8zAQzANwwDLvbzd1YBVw9GFfCVq89rjTjOEb/4vTc+MwEMwDcEcJnu5u9sQFGWJVn+2FPQ29Y/MwEMwDcEcJVobamZ5pcjsTxVXhbA/UCG6WcmgAH4jgCuk64sDyViUgdw+bIAXv3MBDAAXxPAR+WnU5zkrwzglUgWwAD8XABPD2Hd8r3/SHnZn6duHpZ5fvRzEMAA/FwAhz6Ay2HA75XfhwDOzwF8fkEAAyCAl6u/y0Yct3bCOn+kXAADIIAvhN+oFWWTwGdhvCg9ejR1roDPtXQVYXn9QwADIIA3wq+sv3WnkyfqIGp/yqY/zY12k0M+7vRxPp5VHCCAAfihAN4W0jT9l6/8tH2eurtR3I91OFfATbiNc3blBQEMwIcGcLuh+2+y/1pm1fey+f5v/H26Cdy+z/R+bn5lAJfDjeJlBbyI2Wnmvk0CC2AAbgjgNkWra72XAng0QKF52yQul4em7qmADwbwuQKOVMAAfHIAZ1mVgvVhqCYJq8dJVn2Pm++n4XvzVqe+AJ6+z80VcL0HnOXr4wgXmRupgAH4/gCefz8HcPU+4YEB3H2IxTSk/SVoe8AAfF0A7+iXoDcC+F85/DR6WO5caAqjC03VjKUsmQVwtFX0CmAAPn0POFSLzSG/KoDzLBm9z81GZ78OVcCRChiALzkF3V7L7W/n1hm4Hb/dHu3sfR4SwHt7wBsVcGQPGIBvuQdclkm8HcBJcmfgLn+/5tsN15BUwAB8VQDHB5agL9p5l76Wrk5mTVav+0Yc4dIecBQ5BQ3A1wXwoSXonYK2kcRDjMdxPF2p7krprLoxHOYB3FfA7XuogAH45gAeFoEfsAQ9bOT2IZ5k863dUQDn83ftW1G273Fh21cAA/DxnbDODSXvW4Iu+9GEowBunxhGN4yWoMP8QlL9bRrATchuVcA6YQHw6QH8oCXoCxVwFbpp95p4fju4HM8DLuvvF09B2wMG4Hsq4Iecgt4omuuqN0vWS+k+f8+fij1gAL45gEM9kfeeJeiVS8E3BHCZl+cxw+cAjgqnoAH4ygBuxiGUty9Bt2vH5aR83Q7gtM/fyz08LnbCsgcMwAcHcDMQ8I4l6KYvZdw1hi5vvge8F8Dba9ACGIBPbUVZx2F5RyOOsp7MEDc3i44H8PIe8FYAR/aAAfjKCrjKzvieJei8C+DsmgCOdyvgMqu/OQUNwO/sAV+/BF02o5HqovaGJejZJajRvwKyzDQkAL76GlK9eVvetQRdJ285jtLDvTsuBvDuKehIBQzAl9wDvrMX9GMC2D1gAH6tE9adjTguD2OYBXCo6++DAewUNABfdAq6aX8xStDdFei4/HfnMIZZADc70E5BA2Ac4Z29oPeGMawEcHML+Yp7wMO2bzHdHhbAABhHmPX9Js8V8Ma7zW4hX7EHbAkagO8axnDPEvSRQ1j5eOzRxQp48xR04R4wAD9zCjo84BT0NIBX94C37wFPX4hUwAB88D3gMA7gh4wjvHzzaBTAa/eAw3oARzphAfCdnbBm1eulRhzlolxe2+2tbiHlzff6hepIVq19u/V7wO3FpcUp6MgpaAC+KYCTeQAn2fr3RQCXy/XqtTXqsi96yyaAW/mNjTgmp6AFMADfMY5wO4CzYwG8duMonwZwaJaYRwFcHg/gyCloAL5xHGGXq/VAoub7v+H7aml7sAIOefutr4B3bgZPAzja7ITlFDQA3zSOsDsEdTCAN/aAy1n3yaY/R5265XDEuTtOvdemUi9oAH7pENZVVgL4PCBp0nAy9O04Jq05DuwBRxvbvqYhAfBF4wivuEm0tQc8HLoaxXS37lx23bKS/j7x+h7w+BR04RQ0AD8wDelQ2bsXwHVpW1ahHvJy2aFyXAF3AVzfQt5uxLHT/EoAA/BFnbAOVsBhvwIO02XtcrLtm7UlcDksTt/cCUsAA/At4wiPBfDQvypbP4SVVWOAx8ecxwE8OYSVV2+YHJ8HHG21xRLAAHz2OMLDAdx1cF4/hBXP5jZko33fthNWux98YBpSZBoSAF+kDbO0/dZae6l/nC+GCMZbFXDWBXCyUQG3nbBClh+fB+weMABflb9r55mKcb+p4a2mGZn0detGJ6wyS5Jkaw+4vRHcL0En9Vveeg/YNCQAPjOBN1+IdgO4Tt0k3+6EVeYbh7DKPoCHCnj1ENZ8HvDqwWcVMACfn7/R3jrvIoD3DmG194CrfJ3cA26L3mbfdzqOMF8bRzitgKPVz9MpaAC+rQKOljXnVgC3p6jGytVOWG0jjmwlgNduIW9cQ4pMQwLgu/eALyxBX2resdYJq4ngjQCeH4Nu3/zC1V8VMADftwe8uwRdXgzg2YiFMu+mIZ1f2b16fRjDqBVl5BQ0AD+Rv0cOYV3bvGMyD/iw/b1qe8AAfEECR1ftAV89M2k1gMvm6bLciuYL7Z9NQwLgw/eAi2v3gBcrxvl5HXnywjyAl4VxlsTlbgBHekEDYA94q77Nsrg7BR1n2cHpSu37NVeHL1TA0aX7ygIYgE8K4IsvrARwU+HWRW79y1DJtveB47iL0/zoUKUsuSKAVcAAfOE1pIMVcLtgHCfZeeG4C+A6S5MrAvhcAYftAI72t6rtAQPwuUvQi05Y0X4Ah3q9uUngSQDHNwTw5T3gQ5W6AAbgq3pBR6sBnLUB3C8c95VsXLtmCbq7BLx+F3hzCdo9YAC+9wzWkQo4zCrgYRrD0QA+dA84Mg0JAKeg23o3lHE83QPOs74pdHKhS9asP1b7PRxcgo5MQwLgS3tBR6vtpvK9dePJGvLWgvJKAKcjuVPQAPx6J6zi0Z2wtgO46L+vRHad8v9G36YP8/f5oxTAADx2BfpgJ6w7AnivAr5wiVgAA/DbnbDuCOC2+t2ogAUwAD/UC3rjHnC54pEVcCaAAfjBVpTR+omsIYDTbMVd6Vu9f5h+LwUwAD99CnqlNk7riJx/uyN/+w83/j7+gGV+6TZTKYAB+PJTWE0Ah8sVcHdSeSMw/41eNwrf87dxAl8OYBUwAF+Xv9FyCboss+n3crlkvBeak9eVbfJm+bQAHiWwAAbAKejo4CnondCcBuo4dOsQbn/ULwlgAH5rDzjaP4R1bwBPXtcUwG3itknc/ai+lQIYgB+rgKN7O2HVoZkeqYDLIXqbn/JuDzgflcACGIBfWYF+egWcTivgMJTB3YP613JyaOufU9AA/NAecPT4PeDZEnRX+U7PYIXxJrB7wAD8RABHL+wFnQ3xG8YnsOocLgUwAD/WiON1vaDL4fTVuAieHoMWwAB8fSvKYnkIK3puAC8aYV1Ygm7PZE1OZglgAH6gE9ajAzgfgvd8B3inH3QTvMnplDU5LIAB+M5e0NFzl6AnJ6C7H30/js0KOMtOVQBnQQAD8EUVcPTaPeBh6Tk/Lz43P7Yr4CaAkyq2BTAAv7EC/fB5wKM94FFLrL0JS1UFHNoK2BI0AN+awNHqNKQHzgMu+7ZX+bQp9KQRx3IPOOvOYjmEBcB37AEfOAX90HnA2XISYR/FFz9m+e+fChiAn9kDPjQP+Lp7wN0ZrLxL3+kwBveAAfj+/I0u7wEv5wFn9+0Bn89gTdegj38QAQyAXtA3VMCTRhxDFG+dwSrLU0MFDMAv7QE/4RrStBdHl8jrVXWepml2miawAAbg01tRPrATVlbW35aJO336PA44jDaAtztRNgGcCWAAvq8TVrRaDl9bATe7u2sBPH26nPfC6tegR28yvmncBHAsgAH4xj3gaOUe8PUBvLqOvHg6mwxCOpfBs+kL+XIJOu6fFsAAfMcZrLU0vi6A04vmNfDsHPS/jQCudVvAWf9hBDAA39uL8voALtLzz4Oif2rajaO/WxyWfaC3AjjOggAG4Kv2gKO794BHSdtHcDF6sZgEcBWy44zO1wYAT55UAQPwM/eAo9uWoFcK4NkS9CKAy70ALvNQTwO2BwzAV11DetQ94CZqh4q3HIVssVyCbl5XdN8WFbBT0AD8xhL0o/aA+4q3PN/hLdLrK2D3gAH4sWtIj9kDzqfp2T9/eA9YJywAfm4aUlTcsQdcLEvd0T7wbJU5P9utgPWCBuDrz2Ddfw+4mC0o5+fnH9lQWgAD4B5wG8DDGaxyutRcrFbA91EBA/BV05CKeyvgYhnA64ewBDAA9oBvmwdc7c2O2mWct4CXAVw8eglaAAPw6fkb3bwHPO1Xdb7yO98DLhYVcPVudWhlWdI0owzh0kEsAQzA7+wBR1cGcLF2qWh0O3gawNmgHkcogAGwB3y0Am6Sc3YNqVjcAy7S1Qp4mMZQP7g2gJ2CBuBnT0GXeZ2d+fgU9KKzVT7uRbkWwEmTv7tL0En2339ZogIG4EukbQ+M+iTV0BSj7L41D4fHG9mYN+MR5o04xr2w8o1hDNMKeH8J+r9WJoAB+JIAvvssct2cqlxeQ2oitypq5zORVgK4PYS1UQE3Exn+G0wGNAhgAH42gOsK+LS6BF2MHhQrHSqPVcD16875+1/ztgIYAAFcJ+LsHnCxmAe8WwH3EXwkgP+r30EAAyCAs/kp6HUr94CrveX6e9msMzePVw56LQJYBQyAAK6nFIXRPeCyzJokysqZ4elrfwMBDIAAvtiIo4rgZjl5kbMbTwtgAASwABbAALxlAJ9G+mT9V+/h/nua5pTWOH8dwgJAAN+1fdx+K7vH7YvT1/X3gIcEztwDBkAA3714HbLxOIbzNaShKddQB+uEBcBvBnC7iRv38ZuNO2LcEcDn+B0PY1gEcN0Met4KWgAD8LUB3CZhuQzg0AfwPChvqICTZSOO5nJTuPBxTUMC4FsDOB8CuNmXnS5Bl+da9fYK+NyKcrIE3T6ZmwcMwK9WwGHUIHJlD3jaiOO2AE4WvaCzpCaAAfjZAK6XhncDeNKK8pYATpYV8L+k/T1KAQzAby5BNwvBlwI4y+8/hJWFyTSkIyetBTAAX1sBN8MGVwK4rlvLbDGO8OY94DA9hFV9zFgAA/DbAbx2D/h8DenyUvHWx+7NHg+/UXwhgJ2CBuBrAzjeqIDjuIvLugKO83+PZgkaAHvAz9kDvpy/sQAG4OsDOP53mv148ino/QCOh9+j/mTOn1b3iQlgAL4igE8rJp2wtu8B39qI49gS9MYnJoAB+I4KeD3nzp2wmiNSyfC6JGn3gMunBHDZ9tyq95YFMAA/GMDlEK+P7wV9ce85ZKUABuAnl6Bnl4aWFfBzVFvPoTvcdSSAs+bZon6QVS82DwUwAK8VTknza1OsJsWQT6e0fl1bvm5VwPHwbf0S0O484DqQzz/ql2dPDU8fatLRVdanySe2FcB15+jqS01Pcf3TSQUMwMvFXQEYV6kUN1mUneI6oNoA7h6tV8BDX8hbAjire2Mtfqw8lR2ogKcBnPSfV7IawPFQ8tZfe1sGC2AAXpsFba1bp1La/ZQNJW9YZNOkAo4XAVwlYbl/Cvr8mvrdRj+qD1bNM6p/WTx9uclGPpz+OhbA1SiH5lFSfb3xKRXAAEQvX4HO2jXoGwM4ab5vXEPavTVUv1v1vu2PKiqrH3H1cOXpI102Jpmf9J/XegC3H6//Al+/Ai2AAaiXY9sEik9ZmnVL0M3yctQvQWfR4SXo/FgAn27w77oA3quA0zQq2rq3+trTbg9cAAPw2hXoKnDT/hDWqRj2gNOoP4SV7FTAbaE5qoAnnbAeGcDxtQGcbAZwFPUHoOud79evQAtgAELTxDFrK+DQ1sJHlqAnFXByDuBpL+h1fWBf5chZrHkFnKwHcBEnQwBnp9dfQhLAAETdTd1uDzhuove6Q1jJ5BDWdBrS4wI4vjqAk+0l6PoNutwtus1gAQzASw3Z2/yUdnvATXgVFwN4uQdcHtmtvakCDjdUwFsBXIwuN09uOQtgAF6jPYHULMd2KZxNG3HsLkHH6wF8qQIu41v2gJPyYQFcJWARaUUJwBcNY3jaHvBVFbBe0AB8aQDHG8MYwlscwhLAAPzcNKSQPymASwEMgGlIl+YB7+0BJzdsAselAAZAAO/OA7YHLIABeO084LL5/tf3gAUwAL9VAR9SJsktt5AsQQMggO8J4L8+hFU0t4C7n4r2pebF7qEABuDJOVBEhxpTjF6bXs65f3/fCWs/gJu+I+0MqGSYQHFqGoElAhiAB6oDL06HPoxFN5OgbXfVPSom3SmbcMrO752uVsDx8O0FFfBWAJejb30Ax+PPax7Aad3+OTRhm1bzJ7LQBnAsgAF4eADHSd/0OHQPijrU2txNqqm/w0yC9NwlOe7fIRvy+UIryoN7wI+8htTdfGp/OdSKsvknSNJ9mXH3b4v6nyACGIBHB3CoBy0U3fyjpM3VZLwa2wdR9fqiC+LuHeLql6yvhpfTkJYBXI4zsXxyBVz/Ls3Hq+YQHwzg5mvt/0kxCuBMAAPw+ADuo6Zenm3L3urFIq3PHlWlbtEHUdGXwtUKdFsk1vG8HsCndupfMq+A6+CtnkrCAwN4cw94COBsGsA74wirr2b4Ms8BnJ0EMABPCOB20TWtF57TPoD7zE2Hbd5wXoEu2jyqHsSnPppmS9DJVgU8ZGL57HvAVfPL1QBu/22wMY4wHuY8nQO4il8BDMCzArjK3bbQGwdwFV/9i/GwAp1F/fnganl3HsDnecDJWgA3mRh3mfiYcYT/tveAQxPAh/eA6y9yWHE/B3B0/meGAAbg0UvQzQnh07AE3Vx/bQ8lpbMV6PoMcdpd0AnzJeh4tAecbFbA4fl7wP/a3eZhw7kP4GSnAm7OdUeLAE4FMACPD+D2+lHaxlnabesuDmGNVqCbJNs9hHXK+jXo5R5wFYZZdzD59a0oL1XAQ9Rm9T8k4qLb6RbAADw6gJMq87K+7g1d7PbXkOLm0WwFOumbVVTvHPauISUr15DKv50HnPSf10YAD3VvNmrEEZ3rfAEMwIMbcTRp0wZrehoacfQpFBV9DdhuGLc5Vb93iLb2gG+4B3zLHnD8r3xcBRzpBQ3AW7WiHFagL7Wi3O0FXTb6X+Yv3l8Bz3pvGMYAQPTr4wjPjTjK4VzU/OW794Cbe8bx0HtDAANgGtLKKeiuL0d7U7d8TAU8vvorgAFQAa/0xii7vEy6xhy37QEn5UoABwEMgAp4oxPWJC8fVAEHFTAAAngZwHVAJl1zqnK8ZfuoPeDqAzuEBYAl6MkSdJk3J56bX+tT0P0TZV4+5h5wuXnhWAAD8KsV8GvnAV8fwGk9Aqr7uQhZ2odi9rI8FMAA3BjA8R0B/PxOWPsBfO6/2bYgaXqQnB8JYAD+zCgaiuKWPeB8NB/h9b2gL1TAbdvJpGkMFtK2z3XVjrPI+kkUAhiAv6lz+1qwyIa5fZu9oFfnAdcXf5ONAC7L5PoKOCkf14qy/uqaryutE7dofzp1DaEFMAB/JumaRJ/bRUfX9ILea5Rx+xL04wK4nkjRzYZKhn9yJJFDWAD8sVM7OilKkzTeCeC4H7ub7d4DfrtpSNXUo6b27dahBTAA0ZusQGeLgfWr15D6OnOrAg5/Ow842QjgehJjM3VCAAMQvdUKdHUyKd0N4H/DHnCyvgdclb7Z1h7w068hJf3ntTGOMO4OPLexm2XdwazmkQAGIPqzFehimE1/oQJO1ucBl1t9Ml64BL0TwPXv35XCRXsSq9kTLhzCAiD60zPQp1OfRRcr4CaE3+wecNJvTm8EcNHtcUfZcPu3fZQKYACiv1uBbiI1vRjAp36l9/kBvLkH3La4LLtfD1bAUZZ0X1WI4+5hSPpHAhiA6I9WoLt2UReWoDfuAV9sRXnLOMLT+nL2sOHcNf84GMCRXtAAvJsiyTojebsAACAASURBVIafR7Xi43pBP7QCztcC2DAGACK9oJ+6B1zm7ZThegSiAAbANKRXVcD1SnMdwN2vAhiAn50HfMlte8Bbsw0rdQB3vwpgAFTAV0wsulwDbwRw/br6FHTz6z8BDIAK+OJl3VPdxbL5UZ1XzrLqSlC29vRuBTwO4FwAA6ACvlABV3u28exHsnwqvnDJqcwsQQMggK9QJWu5/LH21O6l4nA+hBUEMACWoC835Gj6V3U//vU/ysXTuwFcD15qryGF4/eA06rWrvtPFs0chixt5jBkzVMCGIA/rND6sUBFl1TPqIAfY9oJ69gecNp3gC7qhpvt3Il2VVwAA/CXQjugoA6o2YSCR7SifKj8hlaU9VfXtNqsvr54COA6lw1jAOAvVeeOQ/trqJIquTAN6U8D+N/1wxiaKcBFnX71PzDSIYC7wYQCGIA/UpziNnWzZJ5Ka9OQFuMIy8HyqWfn8RDAyWYAD7OOmwDOzgFsHjAA0d+uQIf4VAzD68OVS9Dttmy7Irz91B3LzQeXoJOdAK4uL7VL0NkpGwI4EsAARH+6Al1k/XZoNg2leQXcFsB/GMA3jCOsAziO68K+CuCiO3slgAGI/nwF+pT2O7/p6VRsTkParoBDVl3PDdlI83K4O4DDSgUc1gI42a6A0zZ72wCOkpM9YACiNzkDXVvL32N7wHUAd4k7fGvi+N4A7ppuzMYRto04Qnsf+EAF3F0+6gI47QO4SE+T1XYBDED04hXoLFSbwO0p4bQoiqv3gMMsfYdv9wVwma0E8No4wqTbAt64hhT6S7/NqavYPWAA3kJT/DZHk+JzLbxVAa9dQ6q7U/U18PDjERVwM3ChXA5jqAO4+/XIPeC60UjbCau5i9TkYJ2HOmEBEP1lG6zQN8PqdnGv7IRVDlvAefVTE8b5Q/aA+5GDa88ZRwhA9OO9oMtuD3gofc8v3VkBxysVcHyugGPDGAD44WlIbQV8jt78HMIHArg8raveMV/ZA87X9oAFMAC/OA2pqYC7c1f5qAw+EsBlthHAWdbuLa+cgg7NNaTRKWgBDMBvV8Djy0jHKuD9AL7UCcseMAC/G8D/hj3g8zL08VPQmwFcHu+EJYAB+MlDWGHU/2rSC+ueAD6H7b3zgAUwAN+5BH1HL+i9JejD05AEMAC/eQ1pO4DHswnnjwUwANyxB1zFaPPt3+KZchigkI2WqcMkq7eXoB8UwEVcaTphRUncPK4fVs0346YVdNY8F9fPtIIABuBFFVqcdHnbp9JqAG/0gr540zfvpzWct4bPAbxzCOv8Acrqe10852W5FsAXhzHU0r4DdDMDqfpt47YZ9NB/s/9MMgEMQPSqeUhFF1XxNICmS9CbvaDrRB2OTJXjl4cKuAngpP1lFMBHlqDbjxcnwwe8OoCjdhrSaABw/RUXzZcdn9LRH0RmCRqA6HXzkNrgyar5fMX2MIa4n0aYrewBJ3E5DuAqL7N+W7j6JTuvQU+XoMsDFXD9/lmTyXsBnOwGcPtljQO4SsM0jQQwAH+mOCXn0fTrATypgJNlBTwOyHL8YjlUwF1GNs0qr9sDPhbA9YffDOAiOyVN7CaVoluCDt2/PuLuOQEMQPTaFejqRFKbQGl2OqW7e8DJyjzgPBsCsjznZdK9PN0DflYFnFzYA46LYQ+46La72y81HnaIBTAA0WtXoIt68TlqC8PtAD71NexyCfpABXw+hHXLHnCoivRw8x5w/8+KSXVffdEnS9AARH+3Al2l3bAGvbMEHfcrvft7wE1e9nvAfQVbxc9wD+nqU9DtzeHpBeJZAHfft5ag0/brG762tDuT5RAWANEfnoHuFmZDfVu2W6Jdr4C7Eni6BzwPyHleti/+6x//m+ZofKo++PJ7ecU94AOnoOPuGlJaax5ladpVwFn3nAAGIHrpCnRaFHG9Bp0NqTQP4PiOe8B36yJ7twK+FMBpdwq6vwfcbgyH8T1gAQxA9NoV6CZ6kj6V0us7YT1X1+cy37wHfKETVlPedj+lQ7WbhrQp9cfPFWkhgAF4UQA34dP+PKTSNb2gXxLAzamucFMA6wUNQPSlvaCvW1Guq9muq2Tz4NLQpIvXkAQwAD84DemGgjZMRgcLYAB4fgXcrCif+3KEtZXlZWJbggZAAD+oAl7OZnjGISwBDIAl6L4CPq9AX66A75wHLIABUAEv9oDD5QpYAAOgAl4P4Dztatjy/CAdXlduVMDtEnRQAQPATRVwlbZdyo4f5F3+DlE8qoDHS9DPr4DTbOhwlV3V7CrtPmTSNbPMbmqVJYAB2IiZ8TjgYncc4WorypUADn0AVw/CogIO9Sp0mZR1+bs25Oi6AN5vRRlVwxabacDd15dcE51JUr9zkrV/SLM/HQEMwF2yc64k6wF8utALukqX4UEbwNnoQfa8LllHArh6gyF1T+sBXBQ7/zpJhp7ZyW29ogUwAKvqO7bnyUhFtD8NKVmpgLN+fG/1oJw+OL/uqQGcbAdweg7Rau7xSgCncTcOeTeA09PptgJYAAOwMY4h6dagq0fxagBfmoa0zN3xg9dUwFvzgEchWlTjnuYBXNRfTVy0dXBtK4DrhYLgEBYA0eNWoNMudpNTEe9WwG0BvAjgKsH6E1DDg9GjJw5uOLIEfQ7R6otbBHD1PqHoF5mHwYRrAZwIYACih65AF+3p3rT6Ob5lD/h0ST+F4dzSqnxsACdHKuBqgb0+U5XNN8DjLoHTJia3AriwBA1A9NiBwFUsxe1ppaRfjr1qD/h4ANdNnZPs8QF8qALOhjtF03icDUHeCODkFDKHsACIHngGuqvturRMr76GdDiAQ52Rcd188uEBnBxYgp4+PAvJ5UNYVUy7hgTAA007TOwsQZ/uD+CsDeDsbyrgzQCOdi9JJ91Cfaj/mJJIAAMQPWYFetyLY+8Q1mYnrONL0G0AP3gJWitKAD4xgYto1Ipieg3nYC/oaw5hlY8/hCWAAYh+shf0sQB+2jUkAQyAABbAAhiAF40jPBrA5b+yWnou218EMAC8ogJ+WiMOAQzAlwZw/KgADskTGnEIYABUwEcacWQCGABetQf8tEYcVwRwkRZX3tGa3M8qCp2wAPjEPeA/acRRhDg5j/S9qp1zMjTnjOt3THTCAiB6dC+OlYG4HzMNaa8VZTYMYKi7ae4NXlgL4KT+qEUT3npBA/DYOrcfgtvm7M484LsC+K/mAVf/cmgDuMiads5bgxfSdC2AQ138hvZhYhoSAA+U9FVhk7Eh2p6G1E4jfMMA3psHXIwnMBTJZgVcfVmhWAvg9l2aecAOYQHwOP3GaLHY4VydhpR8WAU8HoG0sgecNpoCuf5YxXwJuh5hXPQBLYABiB63Ap21pV01EimZTsZdzgNO3nUJ+tg84G5DN5qMYzyXtulp9m+QpJ+V3D7OBDAAD5Od0naRNT3NTwnPK+DknfeAkyPzgM+Tj5cVcFq/f5gFcJZ2AZyeo1gAAxA9YgU6Cm0qVZdki8k+57ICbkL4DQM4ObAE3Qw9zjbL2OrLStKVPeDuPapszm66hSSAAYjWz0CPzz5PqrzFKejkURVw2XvhHnBRv+n2NaQsK1ZPQbeXj0J7DSkVwABED1qBPsVxkzFZHS+rFfBD7gFP5L3XBHBb9RbV1xmnVy7Pt0Vz0dxFyjTiACB62Ap00S3MVrVwFk8i5nnzgB8ZwHpBA/B5imb1uV2krVejs+JZ05BmARya7wIYAKKn9oKeCFn7rRTAAPDUaUizAK7St6ICBoCXVsBZE8HjAC7rSQ3Vt6x+nDWPLw1tEMAAqICvCeD+4HI5DeA8G7u8RyyAAVAB3xLA2SyAQ7sy3ZbHAhgAAfycAG6Ct/nWVcChb7dVn9ESwABYgn5oAJddV62yzd1ms3deAYdMAAOgAn5WBVz2HTnOFXDy6CXoYojCZbvJNKTF9FGRFpEABuBNKuCHtqIcHcIq8zpqy9v3gC+1okz7DpLZaTkPuGjeJ+0aVbaPshsH/wpgAK7L2SEaijSNLkxDelwAh7YELutf+wDOsusr4AsBXOdqP4whTecjBauBg0Xo23EWWdMXTAAD8KJ5SNF5It/2EnSbjI8ZR9h3wsr77eC+Ag5DBRxCfjyAd8YRJlk3DakZuhjPBhq1o46SonvURbEABuD5kn7KXlX/TfdIn7cE3cVsqHO3KVHLe6chJRfHEXZVcDEfBpX2rzk/J4ABiF4wD6ndGC3OU4E3KuC2AH5cBdx0wmoC+F/5/HnAbbbO94Cz7ssXwABEL16BztrsyeoHyeY0pMfOAw7VanPeLUHHcZzdF8DJwQp4baBvHcGxAAYgevkKdNrMna9PKyWnSRX8vD3g0Tzg+hR0lr+kAs7OITuEY/uVF10Ap8EeMADRi1ag6yI4as8nFZOIet4e8CyAJ1MX2lcM14OPBXByIICz+QZwvyfc7AOfv3wBDED0ijPQtbYU7o4Bb1bADw/gctSIY/K65JRcFcAHKuDuK83mh7Di9stPm0dZf194USwLYACih65AJ0l7Dro+oLReAbf3gB/ZCWs2g2FeATchnz2qFWWRhPaXxiwHQ/UHkLUNsKpHzRum7RsKYACiZ65AF93h4GIoAa/sBV2fae76a4TuNNX4QdgP0bL1xACO9IIG4N0USTb6uboIHF3fC7ocBvsuH5TTkYNHCGAAIr2gj1TAVZm7qIDD8OCGAK4iOC6P7gELYAB+cxpSmaZpG7fDg5Cmbe5maRquDOBuRXq2MC2AARDAFwO4etAWr3n16N/TCGAAfnkJuk/bOm6HTB4elAJYAAPwhAr47whgAH65At6621s2Da3K5SZv/9r2AnDXiWP0YvuO9Q8BDIAK+LoALuMkWz/I3BxzTtpzzuX0xbzvhPXIU9BFunw0PJN1fTiq4UxpMTyZCmAA3iOAt3tBryZsGK7ylmvx3N70DX0Ajy/+XnsP+EIryiLEXS/oIo0XExeLoT1lPOpTGR7XiFIAA3A5cLticH0J+ooALrsMTWZzFobXhiYtu9fWLz4vgJs3aR7VETsP4Ljtv1k0wxjSPoHjpjenAAbgJZpkTXcq4HYa4bEKOHtlBbw3DzhJh2lI1aN4rRNnmhXjmYRNWZwJYABeoy4E09V5wJMKOMkO7gFn3R5wecMecCiP7wEfnwccLQO4+mK6qj9uBxMWzQr0I9egBTAAu0Jd9e1MQ+rH7h4J4LaNVbnRzWr26v0XHzcPeC2Am7I/LqYBXD3MHrcGLYABiPZXoLMqdzYD+NTF75EAfuk94KSvzG8K4Hrnu/mizwFcLQWk2ePWoAUwABcCuBqIuxrAp9Ep6OQtAzi5cQm6HQMV1+XueQ84tEvuAhiAV53ByqLdCrgrgd+zAr5tCfrUxm4bwEXcXUiqZjg97hy0AAYgum0POL72HvDnBHCY3gNO2sNo7YK8AAbgFep0KlZPQXdr0MO3N+sF3X1a8VYnrHNfqyILK52wkrTrhNW+XftG6fJNBTAAT9FUkOERvaANYxDAABwXkmkPZNOQBDAA0QdNQxLAAhgA84AFMADfHsBl1Q/j+h/lpTcQwABYgt4L4Ow5BDAAKuBDARzSSjj8Y/1ZAQyACvhgACdNv6z0MfoPJ4ABUAEfqIDT9GEJ/MgKuCiOhubV7yGAAbgjK7Ii2h1HeLEV5YPzt0ngqgRO7mhFWWRx0bX6qt64mHeiLIpRK8qmEWcRd90pq1kNp/t7QgtgAPaDIo1naTNdgj4ewF129nu5R37qf1k8nV6sgPcDuEnTohu8UL1JNg/gLG3Ttn73JGnfLsna55Lqnx13J7AABiDa7wV92gjgoQJOLo4jfGz9G/oEvn0cYXrKugBuZjLMpgxWARwnXbnbv67ph91MZGh+yoZRDgIYgOdUwEW8HsDxVUvQ6bh+vSJoN9/pUAWcbC1BF82k327aU9FXw+NhSMk8gPuG2KHO3uLeycACGIBL4p0K+NQXwBcCOH24cM8SdPNV9QEcTosArr6aMA3gJpWbveL2FQIYgD8K4NMVFXCYlbVHrgEvy+Hpa8KlAE52KuBRAFcr7IsADvWT0wAezl4JYADeogI+sgccrl5/3lt+DrMALptvt1bA1WnoZQBXNftsCbq+epTVG8GWoAH4+wC+ugI+nsThwnsMAVzmtXIlgJPLAdzk7OIQVuhecQ7gc91bDCksgAH4qyXo0w0B/JAq+FAAH6iA6/u+8yPNowAO9dWjrH27JCTNG8bNhaRCAAPwh0vQcRInlTg5FMBhGa07l4DXkjisBnBYBHD/iSXxfgA396ziYiuAZ404mjdsNoNDJIABeK40FPf2gg4Hq9qb9oDLvCp0FwH8+FaUxfCGWlEC8Bm9oMP12btWLW8tQddLzaVhDAAI4MunoMP9F4H7AK6XhGMBDIBxhIcPYV2+CBymPbFG94iHAI4FMAAq4MuHsMKDWmH1AVzWp54FMAAq4EMVcLj5BtI0gPM7D2EJYAB+4BDW3beBw+ohLAEMgABeD+Cwugp9+TJwWK+IRxXwSiMOAQyAJejNCjjccRN4vxPWxQBevctbrDwSwAC8YQV8fBjD4+cRDoew8upbuTENab0TVt3Xatb/KiqyfuJgVD/Khn5Z3WMBDMArzUvFe8YRhsNnoTfacIT0+DjCvV7Q1Rsk9VCFseqJrH2ybgAdd60oiyi7d/CCAAbg+qCI2ym4OxVwM3Tongp48xLwegqH+wM4rTM1ng1UaHo+n9qSt+gGDlZvE+4evCCAAbhaFbHJNIHm4wiT7OASdHjsOKTLAdysQa8GcDNcMJn+wyKK+5XmZuBglKbtIIrZvz8EMAAvENpSMX3QEvTKKnS4NZPvq4Dj+suajjRK+y3g9Lw4Xdf/SSSAAYhevQFcbAXw+BDW4+cBh+3N36PzgLvvq3vA7dGsdOUUVrYI4GesQAtgAM6yJKxdz5kdQuoDOB5VwI84BX1pHPBig/hSAO8dwiqSOJsla/NvjfS8/dv8QcTVB5of1hLAADw2f+v6L13ETToLqtsr4LDREDocbX51XQXcfmLJViOOYvaVti/H/SGsqD+E9ZRbSAIYgEGcNRkcZkkxX4I9tAdcluNQ3J+GdOPy9H4rygsVcDQ/WtZWuyFpYreq+UfXkNJnLEILYACmuZAu8jfda8QRJ7U4iWcVcNsfchHA17bECkcacaz2gm4/sSTZ6IS17MNRLUuf+mebxYCiL4ifcRFYAAOwmxNtLZle2wu63AjgxX7v3n3glfu/4VHjCIv9piNFUWhFCcDfSdv8Sq7tBV3moapKJwEc7lmEXknw8zWkeFp8G8YAwM9OQ2qWhbPVCjjcuf68GEeYJzdUwAIYgK+chpTXoZhfMQ0p3D6MoTlsJYABUAFXqVi/WK4PY9i/7Rt29n035gGvHcISwAD85BJ0/WJ+ZSescGheQ5/Ro3vAIRfAAFiCXt0DDldGbzi6BJ2vNeIQwAA4hJWFvUG/N05J2u+EJYAB+M0KuF4Wngdw2EvesHxFWCuFw6FxhAIYgOjjJyJFe72gV4YOXWrEceNwpHDdPOD2e7wRwPudNkavfU5LDgEMQHRxRMOka+MkgDd7Qe93wrq3NfS984CjIl5OI6yHLsRNL+iom0vYPToVQ0uSTAAD8BKhms6QTOYGTZegs37q0NFxhMe7Uh7tBX1LANef+HzGQvVmzY8mdbM2bNsvv37Dov5IWSqAAXhNACdpN5lvqwJODs8DvvIy0voEh3DlEvRWANc/0nkAp20An4cCx/XbJO0bhkfOZBDAAByYyLBfAWfXVMCXDmFduAj8sAq4KFYq4FMTwO3Xe+oGIRXnxQABDMAzpEk9gi8tlpvAxf4ecHJdAN9472i+bH0ggDcr4GZHdzb5+BTH9cpz/cohgIv6awwCGIDnjh6sQilbzP9NpmePVk5B1z/NW1E2NlpRbhW2V5XFR5agNyvgrJoXPM/T6l8T9Rr0JICr2I37L18AAxA957xV0RR8a8lcbCxBxxuHsFZOQYdrzj8vg/n6PeBue3otgJtF5mS+BxwXSdQuQZ+GCritgu0BA/DsFA7TFegsTodicL0CXt8DvnAN6QE3ge/ZA07bAA6zAI6682bnQ1jNVx4LYACi118DztavIbUdLpLeshNW2AjgcF0Kh5vuAcf95xWvV8CnZHkNaQjg9hpS6B61b5jWHylxDQmAt2jEsdsLehnAu6ehw3XNoe9qRdkcwpo34hgCeNaIo14E0IgDgOg9WlFenIaUZFd3wrrYoONRAXyxw6RWlABEHzgN6V9Zvzg9Bb3TDuvgJeBgGAMApiHtVsArAbw99ei+cYQCGAAV8LAEXe+dHlqCDovt4HBpFToIYAAE8OYhrOzAIazb5yIJYAAsQS8DOKydgr41b9cOSAtgAFTAywDe6oQVVn66/ni0AAZABXwsgK/ZBb54TisIYAB+ugLe6oS1Pozhti3gcMMe8H4nrOz02LYaAhiAZ0RuemEc4dF5wOHOXeCHzQNO238ypAIYgDfO3/V5wKfrA3itsUY4nMWza0r3BHCj7TopgAF4U6f1AB7NA06uCOCwe7DqYa0ok35M4mYAh9kwJAEMQPRu0xiKrWlIV1TAN7e9CrcGcPuPg60Ang9DEsAAvJPilMW7FXBXAl+zBH1r742H7QE/erqvAAbgrlq3mjtYZLMpuaco3tsDTq7aA15dYw57W72rbx2OBHCyWwH/bQEsgAGIJjNyqyQtpqFcRBcq4DaDj1fA16xHh2dVwOnfFsACGIBzJiXNhm82P4E1m11/8zWkcDlpwxUxfF8Ax6dUAAPwPubj59sLs0m61QlroxHHFXvA4cYTWQcbcawHcPGnd5AEMABH7C1Bb7Si3AzgcDF8Z4MXNm8waUUJwJfL4uLaXtCXG3Eswjcc3gwOAhiAyDSkwwEcHnUDSQADIIBvqIAPB3G4eRiDAAbgF8cRXrqGtH8lKey1rAzGEQKgAr4ugMPOmnO4PIpBBQyAAL62Ag437vwGe8AA8Jw94LB92Hn7upIABkAAXxPA4bbbR7Mu0QIYgB9egr6uE1ZID2wCH1ybPtgJKxbAAHxfBXxNL+ir9oDDk8cRFtnfNqMUwABcyNt5TEwr4KuHMVy6dBQ2W1PO3uKuAC7qfzsIYADeV7ugu1cBt3N3dwN48xRWuKUxR/sgu2cecHLKIkvQALx1ANeBtzsP+HIFnGUHYvdCc+j5KIbsjgq4KoBDkhUCGIB3VSwG10+WoOO+0LwUwFk4NuT3cvS2skMBvFUBp+36eSGAAXhTTVQlxaUKOLkYwNnWFKRbBgKH7EAAJ9sVcFqHb3wKAhiAN1BlVYiKSdpWURVX2ZqsBHA8nIJODixBZ9l+N47rhhNm2aEKONkO4OorCn+5DyyAAThnbXWbN46XC7PF5MbOWgV88RBWks33gQ/eNVpbmg59tt6xB1wdK8sEMABvEcBZHUqzVCqK5iBWcd81pC4xw/7ohXAwlvvfcrcRx/41pPhUL5rbAwbgXdVl4l4FfKwVZS99gDDcfLqjFWVR53LqFDQA0duegm7q3LsDeDgU9UB39YIuCveAAXjnBM7iJL13HOFzJIYxABCZhrQdwP/+JaNv/U/zX7efXPzUfSABDIAArg4+bQfwS23/w0AAA/D5AfyBBDAAAvgPlAIYAAGsAhbAAAhgAQyAABbAACCABTAAPxXAeaNsfxHAAAjgFwZwfIrDYwLYKWgABPDBAG4GLWWZChgAASyABTAAfxrAZZ6mRV4+PYDD1QG89pkJYAC+IoDLfqZfkT9xDzj7l119CGv9MxPAAHxDAI/zLH9W98jZr9evNecCGICvCuBpnOX//r1pz+dUAAPwRQE8v9NTvk/+FtH6vw0EMACfH8Dz7CjeJoA3PzMBDMDnB/DiNW9TAhdbn5kABuDjA3jZVSp/26m/uQAG4FsCOD/coqO6kHvgqdvzNk0v3fZNBTAAvxfA6TwhV5861lxjZTZDFeb5hQAuBDAA3xvA+dMq4LIxC+BSBQyAPeC9PeDy0FOXK9/1AP5Xzj+YPWAAvvgUdPG6U9D5bgA7BQ3ALwVw/roxSVXkVuMYDgdwfvRTFsAAfGArymmhWZTPnEqYVQMJDwfw5mcmgAH4hmEMxYvy91+ZJUmSld1prOGXYwk8+swEMABfMY6weE3+/ivjaiZwvHK8Ot+8G7z6mQlgAL4igP/lxfY44JUBvitPlUeeagI4Kf9dcZt49TMTwAB8RwA3cbm+Grzoj7H6VLn61Pz3yPsl6EUA7x/dmn9mAhiArwngf9vtN/JbM3kZ8u0hrG7zt+/L8a+8u0u0AAbgywJ4Zb25XF2VLi8/lV93Denw/SQBDMD3BfDfNeIQwAAI4KcF8D8BDIAAfvKI351hDAIYAAH85BwWwAAI4D8L4PLWJWinoAEQwH+xlyyAAfidAF7pGJkvW2jk6Y3RXu70wxLAAPxuAK90jDz21M0dPwQwAAJ4rWPkegVcLnZ8y/bM1cp3FTAAAvjSIvGxp8rVI1cb9t5RAAMggO8983w5gJ2CBkAAPyeAQ1YLoXkhvTmAVcAACOAjAZw236tJSK0qg/MugwUwAAL4qRVwyMZLz30EC2AABPAzA7hbd54nsAAGQABvDFA49FS++VR5ztt0nMDnAL62H7QABuDrA7hc9se48qlyVP+G/yphlMAbF4ydggbgxwN4pUHVsafKPlfLodxt4vccwVkbwOXVzbNUwAB8/xL0yj7t2lPLDO2fqgI4TPO3S+AugP/llqABEMDPOISVzfL3v//6fWGHsAAQwM8N4HH+DiWwAAZAAD8rgNsjWJMA/k8AAyCAnxzAyxXo+wLYKWgABPAfBLAKGAABfGQJWgADwK0BvDI6oTzyVH8N6VIAH78NLIAB+KEAXumXsfJUvnhq8xpSmFxDWunlIYABEMBrHSPz1ac2Ajj/b6MRx2Y3SwEMgACuInJlKsOBSQ1lP4owTAvgWQCvjXhwChoAAXzPOMJuFvCiXasTKwAABPNJREFUFbRDWAAI4GfOA+6mMVT+C21fjiCAARDAzw7gbhG6MzwhgAEQwM8M4LYGPgdwl78CGAAB/NwAzrMsDAGcNavQqQAGQABv5Wd551Nlk7Tt/MHRGnRfAZd6QQMggJdht7yee+ypf/1TbQWczvaAu2fWbhergAEQwCsNqvKjmZxOlqDnAdwo0+MdKAUwAD9UAeeLgKzaPZeX3+pf/9RuAK91mBbAAAjgR5zCGvQBfH7GISwAfkvx7w90cZXd+WEEMACf64MDuBDAAHys/GMDuIwEMACRTeCrAzh8ywq0AAbgeuWHVsBlIYABiH7nGFa5vDB07VNDAJcrTSjzvPy0AlgAAxA9fRd4pWXGylP53lsNAXysvce77wALYABekMArTSOPBXA+D+Cw8Vb5hy1AC2AAXpHAK0vEy6dWmmucnzrvAR+b5/Du+SuAAbhNWn7WIaz8zf78BDAANyZI/kEB/GblrwAG4J4MeWEVfM894DIv3vAPTwADcE+OVF4YV+E9Pz0BDMCX+rq4EsAAfFBcBQEMAOLKVwRA9AtL0CpgABBXviIA7AELYACInIIWwACogAUwAKiABTAAKmABDAAqYABQAQtgAASwChgAIp2wBDAAKmBfEQDYAxbAAEROQQtgAFABC2AAVMACGABUwACgAhbAAKiAVcAAIK58RQBEOmEJYAAQVwIYAHvAAhgAIqegBTAAKmABDAAqYABQAQtgAFTAKmAAUAELYADcA/YVAUCkE5YABkBc+YoAwB6wAAYgcgpaAAOAChgAVMACGAAVsAoYAFxDEsAA/FIAF9/yBaUCGIAPyqvCFwQACkYlPQCRVlg2tQHAMejol451AxA5hRVZUgcAibVdANsCBuAzAvg7IksAAxB92Bp06osBgD8ogRXAAPAHoZV+z5fiDDQAdoF9JQDwzXXj+QsRwABEn3Ny6cMXoYvgCBYAkiv6swVo+QvAh0XXJ6/dphagAYg+dRH6c8MrtQANQPS5i9CfGl/n/HUFCYCPzK/0s0t4C9AAfGoCFx/8yVuABuBja8gPi+BC/gIggf80fuUvAJ+dwJ+SwdP4lb8AfKBZmNUZ/NYhXCw+YeevAIg+/CTWEMLvavmpyl8AvuA+8Ofx1wdA9CUbwR/E9i8AiuDXx6/lZwCi79sJFr8AoAoWvwD8ypWkt01fe78AfFkGF2n67uGr9gXgW1P4bfnLAeC7M/gtvwEAAAAAAAAAAAAAAAAAAAAAAAAAAAAAAAAAAAAAAAAAAAAAAAAAAAAAAAAAAAAAAAAAAAAAAAAAAAAAAAAAAAAAAAAAAAAAAAAAAAAAAAAAAAAAAAAAAAAAAAAAAAAAAAAAAAAAAAAAAAAAAAAAAAAAAAAAAAAAAAAAAAAAAAAAAAAAAAAAAAAAAAAAAAAAAAAAAAAAAAAAAAAAAAAAAAAAAAAAAAAAAAAAAAAAAAAAAAAAAAAAAAAAAAAAAAAAAAAAAAAAAAAAAAAAAAAAAAAAAAAAAAAAAAAAAAAAAAAAAAAAAAAAAAAAAAAAAAAAAAAAAAAAAAAAAAAAAAAAAAAAAAAAAAAAAAAAAAAAAAAAAAAAAAAAAAAAAAAAAAAAAAAAAAAAAAAAAAAAAAAAAAAAAAAAAAAAAAAAAAAAAAAAAAAAAAAAAAAAAAAAAAAAAAAAAAAAAAAAAAAAAAAAAADAF/sfHijFLK8AX7gAAAAASUVORK5CYII=;clipPath=inset(10.95% 28% 16.86% 32%);" vertex="1" parent="1">
          <mxGeometry x="-820" y="10" width="570.49" height="580" as="geometry" />
        </mxCell>
        <mxCell id="L91rZKPYXiFvtfqMxjaK-2" value="" style="shape=image;verticalLabelPosition=bottom;labelBackgroundColor=default;verticalAlign=top;aspect=fixed;imageAspect=0;image=data:image/png,iVBORw0KGgoAAAANSUhEUgAAAlgAAAJYCAYAAAC+ZpjcAAAACXBIWXMAAAsTAAALEwEAmpwYAAAgAElEQVR4XuzdeVhUZd8H8O8wwyq7gMii4gquiQpq7mKKkaKSma3ao1aPb8tjZWZmqbn0ZG/2tFmpmWliarmk5qOBS7ljuaMGKaAoKArIDvP+QeM7554DzjAHmBm+n+vq6jrf330NzIAzP+5zn/uoQES1IQLATjEksjC3AXQBcEssEBERWRoVgN8AaPkf/7OC/z4AESlOJQZEZLbxAFYDgEqlwsCBA2FnZycMIapfR44cwe3btwGgDEBHAMnSEURkDjZYRMpqhMoPqkAAGDNmDJYtWyYdQWQBli9fjn/961+6w20AHtQrE5GZ2GARKWsOgFkA4OzsjGPHjiEgIEAYQlT/Kioq0K9fP5w6dUoXPYjKRouIFMDzFkTKaQHgVd3Biy++yOaKLJadnR0WLlwIleru39kfAHDQG0JEZlCLARHV2BeovCILQUFBWL58OTQajTCEyHI0a9YMZ86cQXJyMgD4AMgBcFA6iohqgqcIiZTRD8Ae3cGyZcswZswYvTKRZbp8+TIiIiJQVFQEVG7b0AZAlnQUEZmKM1hE5lMD+AGAPwD06tUL7777rnQEkYXy8PBAYWEhDhw4AABOANwBbJWOIiJTcQaLyHyTUHl6EGq1GgkJCejcubMwhMhyFRQUoFu3brh69SpQuTdWOIDfpaOIyBRc5E5kHk8Ad6erxo8fz+aKrI6Liwtmz56tO1QB+PDv/xNRDfEfEJF5FgP4FwC4ubkhKSkJvr6+whAi6zBkyBAcOXJEd/gwgPV6ZSIyAWewiGquHYAXdAevvvoqmyuyagsWLNC/68D7AJz1ykRkAi5yJ6q5lQBCAaBVq1ZYunQp1Gr+kyLrFRAQgNTUVN3mo54ACgHsk44iImPwFCFRzURDb9frtWvXYtiwYXplIuuUmZmJbt264c6dOwBQAKAtgAzpKCK6F/65TWQ6ewCbULkxIwYPHoyZM2dKRxBZKVdXVwDA3r17gcrfdT9UbkNCRCbgDBaR6V4C8L8AYG9vj/3796Ndu3bCECLrVVxcjMjISPz111+6qDeAA/8/gojuhYvciUzjC+Bt3cEzzzzD5opsjqOjI+bOnasfLQE/L4hMwlOERKZZDKAPADRu3BjffvstnJychCFE1q9du3b49ddfcfnyZQAIBJAC4A/pKCKqCv8iITJeFwCTdQczZsyAh4eHXpnItixcuFD/huULAbjplYmoGpzBIjKOCsB3AEIAoH379vjPf/4DlYrLGMl2+fn5ITMzE8ePHwf+v7narTeEiKrATwci44zB37taq1QqbN68GX379hWGkJK0Wi0KCgpw584daLVaODg4wNXVFfb29uJQqkU3b95EeHg4bt26BQAlAMJQebqQiKrBBovo3pwAnAXQAgBiYmLw7bffSgZQzZWVleHkyZM4evQoTp48iQsXLuDSpUu4fv06ysrKxOFwd3dHYGAgWrZsibCwMNx3332IjIzkLvq16PPPP8frr7+uO/wBwGi9MhHJYINFdG9v4O8bOjs5OeHgwYNo0aKFdASZJC8vD9u2bcPWrVuRmJiIvLw8cYjJ2rdvj2HDhiE2NhadOnXi6VsFlZeXo3fv3khOTtZFgwH8ojeEiAR8ByKqXiCAZACNAODll1/G7NmzpSPIaEeOHMGyZcvw448/oqioSCwrJjQ0FE8//TTGjx8Pd3d3sUw1sHv3bsTFxUGr1QLASQDhAAynGIkIABssonv5BsATAODv74+kpCS4uLgIQ6g6Wq0WCQkJWLRoEQ4dOiSWa5Wbmxv+8Y9/YOrUqWjcuLFYJhM98sgj+Pnnn3WHzwP4TK9MRHrYYBFVLRLAQd3BZ599hkcffVSvTPdy8uRJzJgxA/v37xdLdcrNzQ3Tpk3Dc889B0dHR7FMRvrzzz/Rq1cvlJSUAMANVN6n8KZ0FBEBbLCIqmIH4DdUNlno1q0bdu/m1enGKigowNy5c7F06VJUVFSIZVkeHh4IDw9H+/bt0apVKzRt2hTe3t5wcXGBWq1GcXExcnNzcf36daSlpSE5ORknTpzAuXPndKet7ql169ZYsmQJ7r//frFERnrzzTfx8ccf6w4/AvCiXpmI/sYGi0jeE6g8PQiVSoWdO3eiR48ewhCSc/ToUUyaNAmpqaliSUKlUqFfv34YMWIEhgwZgg4dOsDOzvS9j2/duoW9e/di+/bt+OGHH3Dt2jVxiIHnn38es2fP5mxWDeTl5SE8PBxZWVkAUA6gM4Az0lFExAaLyJArgPMAmgLA2LFj8cUXX0hHkAGtVoulS5fizTfflN1eQScoKAhTpkzBhAkTEBgYKJbNUl5ejp07d+Lzzz/Hli1bqp3Z6tq1K1atWoWgoCCxRPewcuVKvPji3YmrnQCGAaj6xSZqgNhgERl6F5VbM6BRo0Y4duwY/P39hSGkr7S0FC+//HK1+4O1aNECb731Fh5//PE62Sz0woULmDt3Lr799tsqGy0fHx+sWbMGERERYomqodVq0b9/f5w4cUIXPQRgq94QogbP9Pl4ItsWAmCa7uCll15ic3UPBQUFGDduXJXNlYuLCxYtWoRz585hwoQJddJcAUCbNm3wzTff4Pjx4+jTp49YBgBkZ2djxIgR2LFjh1iiaqhUKixatEh/r7H/BeCgN4SoweO9CImkvgLQCQCaNWuGZcuW6d/slgQFBQV4+OGHsWfPHrEEAOjbty927tyJmJiYensd/f398fTTT8PPzw8JCQkGpy/Lysrw448/on379mjbtq2kRlULDg5GcnIyzp07BwDeAHJReWEIEYGnCIn0DYTe7tQrV67EyJEj9cqkr7i4GOPGjUNCQoJYAgDMmjULs2fPhlptOX/HnT59GmPGjNHfkfwue3t7rF27FoMHDxZLVIX09HT06NEDhYWFAJAHoA2Ae19lQNQA8BQhUSUNgA91B/fffz+bq2potVpMnTpVtrlycnLC+vXrMWfOHItqrgCgQ4cOOHToEKKiosQSSktL8cQTT+CPP/4QS1SFoKAgvPDCC7pDN/x9Syki4gwWkc6z+HtXarVajT179qBjx47CENJZvHgx5s6dK8ZwdXXFTz/9hH79+okli1JSUoLHH38c33//vVhCQEAAEhMT4efnJ5ZIRlFREbp164aMjAyg8krC7gCSpKOIGh7OYBEBXgDm6Q6eeOIJNlfV2Lt3L+bNu/ty3eXs7Ixt27ZZfHMFAA4ODli9ejVGjRollnDlyhU888wzKC8vF0skw8nJCW+//bbuUAVgyd//J2rQLGv+nqh+LAAwCKjcTXzNmjW832AVcnJyEBsbi/z8fEmuUqmwfv16PPDAA5LckqnVaowcORJ79+7F5cuXJbXLly/D2dkZvXr1kuQkr0OHDkhMTER6ejoANANwFsBp6SiihoUzWNTQhQGYqjuYPn06bwpcjddffx2ZmZlijIULF2LEiBFibPGcnJywYcMGBAcHiyXMnz9fd4UcGWHhwoX6O/H/GwD/SqEGjQ0WNWQqVO7fowEq902aPHmydATdtWfPHsTHx4sxHnzwQbz66qtibDV8fX0RHx9vsCC/tLQUL730UpWblJLUfffdp38z9GAA1vtLQaQAniKkhuxBAG/pDj7//HO0adNGr0w6ZWVlGD9+PLKzsyW5t7c3du7cCVdXV0lubYKDg1FaWoq9e/dK8vT0dLRp0wbt27eX5CSvR48e+Prrr1FSUgJU3ij9G1Tuj0XU4HAGixoqBwAf6A4eeOABq1o/VNfi4+NlT5ctWrQITZo0EWOrNHPmTNkGe968eSgtLRVjkuHn54dp0+7eCMEZwCK9MlGDwis9qKH6F4DFQOUVZb/++qvshytVzl51794df/31lyTv1q0bDh8+rL/uxupt2bJFdi3ZJ598gscee0yMSUZJSQl69uyJlJQUXdQXwH69IUQNgu28MxIZzw/AbN3BP/7xDzZX1diyZYtBcwVULgK3peYKAGJiYmSvHPzoo4+4FstIDg4O4jYeS8DPGmqA+EtPDdE8AO4A4OPjg9dff10ok76lS5eKEbp3744hQ4aIsdVTqVSYOXOmGCM5OdlgfRZVbfjw4Rg4cKDuMBzA0/9fJWoY2GBRQ9MVwD90BzNnzoS7u7temfRduHABBw8eFGO89NJLUKlsc4VBdHS07IzmqlWrxIiqsWDBAv0bfC/A33/UEDUUbLCoIVGh8n6DKgDo1KkTnn76ackAklq/fr0YwcPDA2PGjBFjm2FnZ4dJkyaJMbZu3Yo7d+6IMVUhNDQUEyZM0B36ATCcGiSyYWywqCGJA9APqDwVtHDhQpudhVHK1q1bxQhjxoyBk5OTGNuUcePGiRGKioqwa9cuMaZqzJw5E97e3rrDlwEYTg0S2Sg2WNRQOAN4X3cwYsQI3H///XplEmVkZOD0acO7nYwePVqMbE5wcDC6d+8uxmywTOTp6am/xtEeev8GiWwdGyxqKF5B5T3S4OTkJF7lRDL27dsnRnBwcMCAAQPE2CYNGzZMjLjQvQaeeeYZhIWF6Q5HAOCGc9QgsMGihiAIwN0/o6dOnSp77zmSOnLkiBghPDwcjRo1EmOb1LdvXzHCpUuXcP36dTGmaqjVavF0/N3bUxHZMjZY1BAsxN83nm3atKn+TtNUjRMnTogRevToIUY2q6rnKve6UPX69++P6Oho3WF7AM/qlYlsEhsssnW9Adzdgvvtt9+Gs7OzXpnkaLVanD17VozRqVMnMbJZXl5eCAwMFGMkJyeLERnh3XffhaOjo+5wDoDGemUim8MGi2yZHSp3kQYARERE4JFHHtErU1VycnKQn58vxmjZsqUY2bRWrVqJkeyu9nRvISEhePbZuxNXXgDe0SsT2Rw2WGTLngTQHajc22jhwoVCmaqSmZkpRgAqr65rSIKCgsQIV69eFSMy0muvvaZ/c/DnADScKVFqcNhgka1yQ+Xu0QCARx55BOHh4Xplqs7NmzfFCADQuHHDOqsj93yrem3o3ho1aoS33npLd2iHygXv3IyObBIbLLJVbwDwBwBXV1fMnn333s5khKp2LHd1dRUjmyZ3xWRhYaEYkQkee+wxdO3aVXc4GJVbNxDZHDZYZItaAfiX7uBf//oX/P399cp0L1qtVowAVF5y35DIPd+ysjIxIhMJ2zZ8AODu6nciW8EGi2zR+wAcAKBFixaYOnWqUKZ7sbOTf2toaM2F3PO1t7cXIzJRZGSk/v0sWwJ4Sa9MZBPk30WJrNdgALG6g3nz5sHBwUGvTMaQOzUGQPbKQlsmd6qU23woY86cOXBxcdEdvgmgqV6ZyOqxwSJbogHwoe6gX79+iImJ0SuTseQWdwNAdna2GNk0uedb1WtDpgkICMCLL76oO3QFMF+vTGT12GCRLZkMoCMAaDQabstghqrWrKWlpYmRTZN7vgEBAWJENfTiiy/qb/3xNAD57fOJrBAbLLIV3gDm6g6eeuoptG/fXq9MpvDw8ICHh4cY488//xQjmyb3fFu0aCFGVENOTk6YM2eOfrQE3LaBbAQbLLIVb6OyyYKXlxdmzpwprZJJVCoVwsLCxLhB3YcvKytLdsPVdu3aiRGZYdSoUejVq5fusBeAR/XKRFaLDRbZgg4AntcdTJ8+Hd7e3nplqokuXbqIEY4cOSJGNquq5yr3upB5Fi1apL8lxnsA5K+yILIibLDI2qlQuRu0GgBCQ0MxadIk6QiqkR49DJfDHD9+HLm5uWJsk/bu3StGaNWqFZv3WtC5c2c89tjde7IHApiuVyaySmywyNrFABgCVJ7Wmj9/vuzmkGS6vn37ihHKy8uxe/duMbZJ27dvFyP0799fjEghb731Ftzd3XWHrwJorlcmsjpssMiaOaJyF2gAwNChQzFo0CC9MpmjSZMm+rc0uWvjxo1iZHNSUlJk15sNGTJEjEghPj4+eO2113SHTqg8VUhktdhgkTV7AUBrAHBwcMD8+dxGR2ly+4j9+OOPshtw2pLVq1eLEVxdXTFw4EAxJgU9++yzaN26te5wLIB+emUiq8IGi6xVEwCzdAdTpkxBy5Yt9cqkhLi4ODFCfn4+1q5dK8Y2o7y8HMuWLRNjPPTQQ3BychJjUpBGo8G8efP0oyX4e30lkbVhg0XW6l0AbgDg5+eH6dO5JrY2NG/eHAMGDBBjfPjhh6ioqBBjm/DDDz/g0qVLYoynnnpKjKgWDBs2DFFRUbrD+wBM1CsTWQ02WGSNukHvTXfWrFlwdXXVK5OSpkyZIkY4deoUNm/eLMZWr6KiAu+++64Yo3PnzoiMjBRjqiXz58/Xv6n2uwA89cpEVoENFlkbFfR2e+7SpQsef/xx6QhS1NChQxEaGirGmDlzJsrKysTYqsXHx+P3338XY7z00ktQqbjBeF1p27YtnnnmGd2hL/SWAxBZC57bJmszDsDLQOW2DF9//bX+vcyoFqhUKnh7e2PTpk2SPCsrC40bN0bPnj0lubXKz8/H6NGjcfv2bUkeGhqK9957D3Z2/Hu0LvXo0QOrVq1CYWEhUHmPwnUAbkhHEVkuvmOQNXEB8G/dwahRo2zmw93SxcbGym7ZMGvWLFy+fFmMrdKbb74p+1xmz57NvdXqgYeHB9544w3doQbAYr0ykcXjnDdZk9movOcgnJ2dcfToUQQGBkpHUK05fPgwHnjgATFG//79sXv3bqtuQnbt2iW7x9XgwYOxfv16nh6sJxUVFejbty9Onz6ti4YDMNwBlsgCWe87IjU0zQCsBWAPAK+88gqGDx8uHUG1KjAwEFlZWTh+/Lgkv3TpEkpLSzF48GBJbi3S09MxdOhQg729nJ2dsW7dOnh5eUlyqjsqlQpt27bV3xakO4ClAGzzElayKWywyFp8DqArUPlBv2LFCmg0GmEI1bb7778fGzZsMFintH//frRu3RqdO3eW5JYuPz8fDzzwAP7880+xhAULFlht02hLmjdvjtOnT+P8+fMA4APgJoCD0lFElofz3mQN+gLYqzv46quvZDfApLpx7NgxDBs2DKWlpZJco9Hgxx9/xIMPPijJLVVRURFiYmJk760YHR2NNWvW8NSghbh8+TIiIiJQVFQEALcBtAGQJR1FZFk4g0WWzg7ARgBNAaBnz568JU49CwgIgLe3N3bu3CnJKyoqsGHDBnTp0gXt2rWT1CzNnTt3EBsbi127dokltGzZEt9//z2cnZ3FEtUTDw8PFBYW4sCBA0DlfQrdAPwkHUVkWdhgkaWbAOBZALCzs8O3334Lf39/YQjVta5du+LGjRtISkqS5OXl5Vi3bh2aNm2Kbt26SWqWIjMzE9HR0di3b59YgqenJzZt2sSLJyxQjx49sHr1auTn5wNAOIBNAK5JRxFZDjZYZMncUfkm2ggAHnvsMUycyLtmWAKVSoXBgwcjOTkZycnJkppWq8WWLVtw/fp1REVFWdRauQMHDmDIkCE4d+6cWIKzs/PdGTiyPPb29vDx8cHWrVuByuUtoQC+kY4ishxcYECW7D0ArwKAm5sbkpKS4OvrKwyh+lRSUoInn3wSO3bsEEsAKnfaX7lyZb03LSUlJVi4cCHmzJmD8vJysQwnJyesW7cO/fr1E0tkYaKionD06FHdYRyADXplIovBGSyyVG0ArMLfv6MzZ87EoEGDpCOo3qnVaowYMQIpKSk4e/asWMa1a9fw1VdfIT8/HxEREXBychKH1LrExETExsZi3bp10Gq1Yhnu7u5Yv349+vTpI5bIArVv3x7ffvut7mcZgcptG2zrnk1kE9hgkaX6GkAYALRq1QpLly616o0sbZlarcZDDz2EwsJCHDp0SCyjoqICv/32G7788kuoVCp06dIFDg4O4jDFHTp0CJMnT8abb76J69evi2UAQHBwMDZv3iy7Sz1ZpoCAAKSmpuLUqVNA5U2gCwEYLqgjqmc8RUiW6AEAP+sOvvvuO0RHR+uVyVKtW7cOL774ou7+cbI8PT0xYcIETJw4ER07dhTLZikoKMDGjRuxdOlS7N+/XyxL9O/fH8uWLYOPj49YIguXmZmJbt266TaHvQOgHYAM6Sii+sUGiyyNPYDfAbQHgEGDBmHjxo3SEWTRzp07h8mTJ+PEiRNiyUCHDh0wcuRIREVFITIyEi4uLuKQamm1WqSmpiIxMRHbt2/H9u3bDXZkF2k0Grz++ut4+eWXOStqxd5//33MmzdPd7gKwJN6ZaJ6xwaLLM3/APgIqPwg3L9/P0JDQ4UhZOlKSkqwZMkSvP/++yguLhbLsjQaDcLCwtChQwe0atUK/v7+8Pb2houLC9RqNYqLi5Gbm4usrCykpaXh3LlzOHnyZJWn/+R07doV//nPfxSfOaO6V1xcjIiICFy6dEkX9QJ3eCcLwgaLLIkPgAuoXFeByZMn47333pOOIKvy119/Yfbs2di0aZNYqlNNmjTBzJkz8dhjj3HWyoZs3rwZTz55d+LqMCqbLN6nkCwCGyyyJJ8AeB4AvL29kZSUBE9PT2EIWaPjx49j0aJFVW7nUFv8/f3xz3/+E88884zJpx/JOjz00EP6m8Y+icrThUT1jg0WWYpOqFx7ZQcA//73vzFp0iTpCLJ6Fy9exPLlyxEfH48bN26IZcX07t0bTz/9NGJjY+vkikWqP6dPn0a/fv10+5tdBdAWQL50FFHdY4NFlkAFYBeAQUDlPjf79++HnZ2ddBTZjJKSEuzZswc//fQTdu3ahfT0dHGISRwcHBAZGYmhQ4di5MiRCA4OFoeQDXv55ZexYsUK3eF8ADP1ykT1gg0WWYJYAD8Albdg2bRpE3fUbkC0Wi3S0tJw5MgRnDx5EufPn8fly5eRlZWFW7du3V0kr1Kp4ObmBm9vbwQEBKBly5YICwtDeHg4unbtWi+bmJJluHnzJsLDw3Hr1i0AKEblVcgp0lFEdYsNFtU3RwBnALQEgAcffBCrV6+WjqAGrby8HFqtFmq1GioV37JI3meffYYZM2boDjcCGKNXJqpzfLei+vY6gAUA4OjoiN27d6NZs2bCECKi6pWVlWHo0KG4cOGCLhoEIEFvCFGdYoNF9akpKrdlaCQWiIjMdAJAN/A+hVRPuCEM1af/oPJmrURESmsCIA1Aklggqgu8TIvq0yAxICJSEG8DQfWGDRYRERGRwjRiQFSfmjZtyivFTFBSUoIbN25Aq9WKpVrh7e2tyHYIt27dQkFBgRjXCo1GA19f3xr9XtX16+vl5QVnZ2cxJiMUFBTotmkgsghssMii7NixA25ubmJMMoqKijB06FDZD/+AgAA0b94cjRo1Mqmx0Gq1KCwsRHp6uv5NdO8qLy/H5s2b4e3tLZaMtm3bNkydOlWM4eDggDZt2sDX1xf29vZiuVrl5eW4desWLly4gLy8PEmtrKwMgwcPxpw5cyT5vRQXF2PYsGHIzs4WS7X2+paVleGHH36Ar6+vWKJ7iI+P19+mgajescEislKrVq1CWlqaJLO3t8fw4cPRokULSW6q7t274+rVq9i6datkpun27dv4+OOP8dZbb+mNNl55eTkWLlwoxmjWrBmGDRtm9uxN7969ceDAARw7dkySr1mzBhMmTEBISIgkr87q1asNmiB7e3sMGzYMLVu2lOSm6t69OzIzM7FlyxbJ65uXl4ePP/4Y77zzjt5oIrJGXINFZIW0Wi1WrTK8p21UVJTZzZVO06ZNERMTI8ZYt24dCgsLxdgoCQkJBrfFcXd3R0xMjNnNFQCo1Wr06dMHbdu2leQVFRVYs2aNJKtOVa/v4MGDzW6udPz9/fHQQw+JMdavX19np0+JqPawwSKyQhcuXDBoVDw8PAwaC3M1bdoUQUFBkqygoACHDx+WZMZKSDDc9zE8PNzkU4L30qNHDzHCL7/8IkZVSklJMZi9cnd3V/z19ff3N7hvYmFhIQ4ePCjJiMj6sMEiskLJycliZNAIKSUwMFCMcO7cOTEyytmzZ8VI9vHN5ePjA0dHR0mWmpqKoqIiSVYVuecXGBho0norY8n93OS+PhFZFzZYRFYoNzdXjBS5uk+O3Km727dvi5FR5L5vucdXgtzjigvgqyL3/OQeTwlyPze5r09E1oUNFpGNqI3ZlbpQW9+3OY8rd2VmbZH7Puvy6xNR7WCDRURERKQwNlhERERECmODRURERKQwNlhERERECmODRURERKQwNlhERERECmODRURERKQwNlhERERECmODRURERKQwNlhERERECmODRURERKQwNlhERERECmODRURERKQwNlhERERECmODRURERKQwNlhERERECmODRURERKQwNlhERERECmODRURERKQwNlhERERECmODRURERKQwNlhUn1RiQEREZAvYYJFFUanYcxERkfVjg0VERESkMDZYRERERApjg0VERESkMDZYRERERApjg0VERESkMDZYRERERApjg0VERESkMDZYRERERApjg0Vkhezt7cUIZWVlYqSI8vJyMYKjo6MYGUXu+y4tLRUjRcg9rtzXlyP3/OReByXI/dzkvj4RWRc2WERWKDg4WIxw48YNMVJEdna2GMl+fWM0a9ZMjGrl+y4uLkZ+fr4kc3d3h4eHhySritz3Kfc6KEHu+ct9fSKyLmywiKxQly5dDGY50tPTkZubK8nMVVxcjJSUFDFGRESEGBklMjJSjHD27FkxMtu5c+fECJGRkUbfiqlz585wdnaWZFeuXMHt27clmblKSkpw8eJFMZZ9nYjIurDBIrJCLi4uGDZsmCTTarXYuXOn7CmnmqioqMCuXbtQXFwsySMjIxEUFCTJjBUTEwONRiPJLl68qGiTlZ2djd9++02MMXr0aDGqkpOTE4YPHy7JtFotfv75Z9lTjzVRUVGB3bt3G7y+3bp14wwWkQ1gg0VkpaZOnQq1Wi3JMjIysGbNGpw7dw6FhYWSmrGKi4vx559/Yt26dbKzKy+88IIYGc3Pzw/jx48XY+zcuRO7du1CZmZmjdY6abVa3Lp1C4cOHcK6detQUr+zWjQAACAASURBVFIiqYeFhSEqKkqS3cvzzz9v8PpevXoV3333ndmvb0pKCr7//nucP39eLOOll14SIyKyQtI/JYnIarRq1QpTp07FkiVLJHlOTg5+/vlnAICdnZ3Rp8WAykaloqJCjO96+OGH0atXLzE2ybRp0/DLL78gPT1dkp8+fRqnT58GAIPG5l6qa8o0Gg0WLFhg8mOGhITgxRdfxAcffCDJa/P1HT16NO6//34xJiIrxBksIis2depUDB06VIzvqqioQHl5udH/VffhHx4ejnfeeUeMTebm5oalS5fCzc1NLN0lfl/3+q868+fPR+fOncXYKM899xyio6PF+C4lX9+uXbti7ty5YkxEVooNFpEVU6vV+Oijj0xaX1QTAwYMwMqVK+Hk5CSWaiQsLAxr1qxBkyZNxJJiHBwcsHjxYsTFxYklo6nVaixZssSsxzBG3759sXLlSoOF9URkvdhgEVk5e3t7/Pvf/8YHH3wAX19fsWwWNzc3vPnmm/jqq6/QqFEjsWyWDh06YNu2bRg9erRJp9mM0a1bN2zatAmjRo0SSybTaDRYtGgRPvzwQ/j5+Ylls7i6umLmzJlYvnw5XF1dxTIRWTFl39WITHMZgGRDpRMnTvCDxgxFRUXYunUrdu7ciVOnTiEnJwdarVYcVi0PDw+EhYVh8ODBiI2NrfZUnlJSUlKwfv16/Pbbb0hNTTW4su5eNBoNAgIC0L17d4wYMcKkLRlMUVRUhJ9++gk7d+7EyZMna/T6uru7S15fd3d3cQjVQHx8PGbMmCHGiwG8IoZEdUH5dyAi47HBIiJFsMEiS8NThEREREQKY4NFREREpDA2WEREREQKY4NFREREpDA2WEREREQKY4NFREREpDA2WEREREQKY4NFREREpDA2WEREREQKY4NFREREpDA2WFSfeKsmIiKySWywyKLUxg16iYiI6hobLCIiIiKFscEiIiIiUhgbLCIiIiKFscEiIiIiUhgbLCIiIiKFacSAiGyLVqtFWloaMjIyUFJSIpar5OLigpCQEPj4+IilWpOXl4eLFy8iLy8PWq1WLMvSaDTw8/NDy5YtoVarxXKtyM7ORmpqKgoKCsRSlRwcHBAYGIjg4GBeLUvUALDBIotVXl6OnJwclJWViSWr4+joCE9Pzzr9YL18+TJWrFiBn376CdnZ2WLZaG3atMGYMWMwfvx4uLq6imWzlZWV4ccff8TatWtx/PhxoxsrUaNGjRAVFYWJEyeiU6dOYtls+fn5WLNmDTZs2IALFy6IZaP5+PjgwQcfxIQJE9CsWTOxXGsKCwtx+/ZtMbZKHh4ecHZ2FmMii1J37/ZEhtIABOkHR48exY4dO7BlyxYkJSWhtLRUv2zV3Nzc0Lt3b8TFxWHgwIGws6udM/SlpaX46KOPsHTpUkWb08aNG+Odd97B8OHDxVKNJSUlYfr06fjzzz/FkllGjx6NWbNmwcPDQyzVyLZt2zB79mzcuHFDLNWYRqPBlClT8MILL8De3l4sK+LSpUtYtWoVdu/ejUuXLollq9aiRQtERUXh8ccfR7NmzRAfH48ZM2aIwxYDeEUMieoCGyyqTwYNVpMmTXDt2jX9yCZ16dIF7733Htq0aSOWzJKXl4fJkyfj0KFDYkkxkydPxvTp082ejfv+++/xxhtvoLy8XCwponnz5li5cqVZs0RarRaLFi3CF198IZYUExkZiS+++AJubm5iqcaKiorw/vvvY+XKlbX2+loKtVqNp59+Gi1atMCsWbPEMhssqjfmvUMSmcegwWpInJycsGTJEgwZMkQs1UhRUREef/xxJCUliSXFTZkyBdOnTxdjo/3www+YNm2aGCuuadOm2LBhA/z9/cWSURYtWoSlS5eKseLCw8Px7bffwsnJSSyZLDs7GxMmTMDp06fFkk0LCgpCenq6GLPBonrDBovqU4NusIDKv76XL1+Ovn37iiWTzZw5E999950YAwC8vLzg5eVl0mnJ0tJSZGVlVbmQ+9NPP8WwYcPE+J7OnTuH2NhY2QX3Dg4O8PPzM6nR0Gq1yM3NRXZ2tuz6re7du+O7774zeQH8jh078Pzzz4sxgMoLAHx9fU06tVdRUYGcnBzk5OSIJQDAo48+infffVeMTZKfn4+4uDicP39eLDVUbLCo3rDBovpUbYOlVqvh6upqUlNgqcrKypCXlyfGACoX7G7fvr3GsyxA5VqmuLg4MUazZs3Qv39/eHt7iyWjaLVaXLp0CYmJiQYLpH18fJCQkIBGjRpJ8upotVrExcXh+PHjktzR0RH9+vVDu3btTG6EdO7cuYMDBw7IztzMmzcP48ePF+Mq3blzBwMHDjS4OMDDwwMDBgxA8+bNa3yK9ObNm9izZw8uX74slrB+/XqEh4eLsdFeeOEFbN26VYwBVM6Y2srC8MLCQhQVFYmxHDZYVG9q9g5BpIx0AIFi6Obmhr59+9bpZfd1obi4GKdPn8aBAwcMFp+PHDkS//u//yvJTDFhwgTs2bNHkrVp0wbR0dE1bgT0FRQUID4+Hrm5uZL8jTfewD/+8Q9JVp19+/bhqaeekmT29vYYO3asYttBHDx40GANWtOmTbF3716jf5+++uorzJ8/X5K5u7vjkUcegYuLiySvCa1Wi+3btxtcjdi/f3+sWLFCkhnr119/xRNPPCHGaNWqFXr27KnY62spsrOzceDAAaSkpIglfWywqN5Y/9QAWTOD80CNGjXC2LFj0aZNG6M/DK2Fo6MjwsPDERsba9D0bNmyBVeuXJFkxsrKysLevXslmb29PQYOHGjwdWrKxcUFAwYMEGNs2LBBjKq1ceNGMUKPHj0U/fCPjIw0mLG7evWqQdNVHbnnNWDAAEWaKwBQqVQYOHCgwSnGvXv3IisrS5IZ6/PPPxcjdOzYETExMYq+vpbCx8cHDz30EMLCwsQSkUVgg0X1yeDTqmfPnrWy15IlCQwMRGhoqCSrqKjA9u3bJZmxDh06ZLD2KCQkRPHTQS1atDB4zOTk5CrXFMk5ePCgGKF9+/ZiZBaVSmXw+gLAb7/9JkaycnJykJycLMmcnZ3RokULSWYuZ2dnhISESDKtVmtSI6hz8+ZNg+dnb2+vyNo+S9e/f39oNNzSkSwPGyyqTw5i0KpVKzGySXLPU1yXZKzU1FQxgq+vrxiZTaVSyc6E/PXXX2Ikq7Cw0GALDmdnZ5PWcBlL7vkb+33KjfPx8VFsNlCf3Pcp9/O8lxMnThg02cHBwXBwMPgnZnMcHR0RFFTlUk6iesMGi+qT5BygRqMxmCGxVe7u7mJU41NDhYWFYmRw6kkpco8r9/XlyC1Krq0GwJzvU26c3OMpQe5x5b7+vcj97sj9jtmqhvRcyXqwwSKLYWtrrqojd2VkRUWFGFkFcebEEpgz22SJz+de5H535H7HbFVDeq5kPfhbSURERKQwNlhERERECmODRURERKQwNlhERERECmODRURERKQwNlhERERECmODRURERKQwNlhERERECmODRURERKQwNlhERERECmODRRZD7nYftkrudizm3N6FpOReX1sm97vTkF6DhvRcyXqwwaL6JOmoSktLUVxcrB/ZrLy8PDFC48aNxcgojo6OYoSysjIxUoTc4zo5OYmRLLkbO5eWloqRIuS+T7mvL0fu+cg9nhLkHlfu53kvcr87+fn5YmSzGtJzJevBBovqU4kY/PXXX2Jkk+SeZ+fOncXIKM2aNRMj3LhxQ4wUIfe4wcHBYiSrUaNG8Pb2lmQFBQUoLCyUZEqQ+z6bN28uRrLkXs+bN2+KkSLkvk+5r38vHTt2FCOkpaXJNnC2pqysDOnp6WJMVO/YYFF9MvhkPXDggM3PYmVnZ+P06dNijKFDh4qRUSIiIsQIKSkpKCkx6F/NkpGRgTt37kiyFi1awM/PT5JVR+57PX/+vBiZLTk5WYxkv7YcX19ftGjRQpLl5+cjIyNDkpmrpKQEKSkpYmz096mvSZMmCA8Pl2RFRUU4dOiQJLNFDeE9g6wTGyyqTwYN1u3bt7F+/XpcuXJFLFm9iooKJCcnY8OGDSgvL5fUBg8ejJYtW0oyYwUGBqJHjx6SrLi4GPv27ZNk5igtLUViYqIYIzY2VoyqNXLkSDHCwYMHkZubK8Y19scff+D69euSzNvbG3369JFk1ZF7XomJiYqe0ty3b59BY9CjRw8EBgZKMmNNmjRJjHD06FEkJiaioKBALFm9goIC/PLLL0hKShJLRBbBcGUkUd1JB1Dlp4mrqys8PDxgZ2f9fweUlZXh5s2bBh+oQOWan23bthnMmphiz549mDBhghgjLCwMffr0gYuLi1gyWnZ2Nv773/8aNC1ubm5ITEyEl5eXJK9OeXk5hg8fjgsXLkhyNzc3REVF1ej0mE5ZWRmOHj0qO2szffp0TJkyRYyrlJOTgwEDBhislfPz88OQIUPg4+MjyU1RUFCA/fv34+zZs2IJK1asQP/+/cXYKFqtFk899RT2798vlqBSqdC4cWM4OzuLJatUWFiIGzduGLO4fTGAV8SQqC6wwaL6VG2D1VB8+OGHGDFihBib7J///Ce2b98uxlCr1QgICICnpyfUarVYrlJJSQmys7MNGiud+fPnY9y4cWJ8T0ePHsW4ceNkrxr19PSEv7+/7ELzqlRUVCAvLw8ZGRmyp0XbtWuHTZs2Gb3IXWft2rV44403xBhAZaPl4+Nj0mOWl5fj1q1buHLlisEMJgBER0fjk08+EWOTZGVlYdSoUTY5A1xDbLCo3rDBovrUoBssOzs7zJ07F48++qhYqpHc3FzExcXh4sWLYklxY8aMwXvvvSe7PYAxvvrqK8yfP1+MFefp6YkNGzYgJCRELN2TVqvFa6+9hg0bNoglxbVu3Rrr16+Hu7u7WDLZpUuX8OSTTyItLU0s2bTGjRvLXTTABovqjfF/zhIp718AJJ8ojRo1UnSdi6UKDg7GZ599hujoaLFUY46OjnjggQewb98+uQ8axYwcORKLFi0yaTZMFB4eDo1GgwMHDoglxTRu3BgrV65Eu3btxJJRVCoVBg0ahMuXL8sumldK27Zt8c0338hutVATnp6eiI2NRVpaWp0025YgJiYGI0aMwN69e8XSAQA7xZCoLtT8HZLIfAYN1u7du+Hq6opr167h9u3b+iWrp1Kp0KVLF0ydOhULFiwwa81VVVxdXTFq1ChkZWXhzJkzYtksTk5OeP311/H666+b1VzpREREICwsDAcOHFB8q4bevXvj66+/rvGFAzp2dnYYOnQoPDw8cPjwYcW3PYiLi8Onn35q0jo2Yzg7O+PBBx9Enz59UFBQgIyMDJv7w6VRo0YYNmwY5s+fj4kTJ+L8+fPYvXu3OIwNFtWbms3vEynD4BThqVOn7i7IvnHjBq5evWrMQlaLZ29vj6CgILi6uoqlWvP7779j6dKl+OWXX8z6cPXy8kJsbCwmTZoEf39/sWy2/Px8fP3114iPjzdrKwSVSoXIyEhMnDgRgwcPrvHpy6pkZmbiyy+/xI8//oicnByxbDR7e3sMGjQIU6ZMwX333SeWa0V5eTnS0tIMFu1bK3d3dwQFBUka/fj4eMyYMUNvFACeIqR6pOw7EJFpqm2wSBkFBQU4deoUrly5YtIMjKOjI1q2bInQ0FBFZqzuRavVIiUlBRcuXDBpZ247Ozv4+vqiY8eOis8EySkvL8e5c+eQkpIie1VoVTQaDQICAtCxY0f+jtcCNlhkaTRiQES2xcXFpUabV9Y1lUqFVq1aoVWrVmLJoqjVanTo0AEdOnQQS0REd1n/BkNEREREFoYNFhEREZHC2GARERERKYwNFhEREZHC2GARERERKYwNFhEREZHC2GARERERKYwNFhEREZHC2GARERERKYwNFhEREZHCeKscIhuXn5+PkydPIiMjA+Xl5WK5Sk5OTggJCUH79u2h0dT+W0VFRQUuXrxY43sRdurUCY0bNxbLiisrK8OZM2eQmpqKoqIisVwltVqNwMBAdOrUqU5v+k1E9aP23zWJakCr1eL69evIzMxERUWFWLY69vb2CA4OhoeHh1iqNceOHcPSpUuRkJBgUmMlcnd3x8iRIzFlyhQEBASIZbPl5uZixYoViI+PR2Zmplg2Sffu3fHMM8/ggQcegEql7L3sr1y5gqVLl2LTpk3Izc0Vy0ZTq9UYOHAgpkyZgm7duonlWlFWVoa//voLeXl5Yskqubu7o3nz5nXS+BPVlLLvQESmSQcQqB8kJiZi3bp12Lx5M9LT0/VLNqFjx46Ii4vD2LFj4eTkJJYVkZ+fj7feegs//vijWDKLg4MDpk2bhmeeeQZ2dsqsLtixYwdmzpyJnJwcsWSWyMhILF68WJGGsKKiAsuXL8f777+PkpISsWyW2NhYzJkzp9ZmtA4dOoSVK1diz549KCwsFMtWzdnZGQMGDMDTTz+NHj16ID4+HjNmzBCHLQbwihgS1QU2WFSfDBosFxcXFBQU6Ec2KTAwEIsWLULv3r3FklkyMzPx5JNP4uLFi2JJMTExMVi8eDHs7e3FktG0Wi0++ugjLFmyRCwpxsvLCytWrEDnzp3FktFKS0sxbdo0bN26VSwppnXr1vjmm2/g7+8vlmrs5s2bmDlzJn7++WexZJOio6PRrVs3zJs3TyyxwaJ6wwaL6pNBg9WQ2NnZ4Z133sFjjz0mlmrk9u3bGD16NFJTU8WS4mJjY7F48eIan4b7/PPP8d5774mx4tzd3bFhwwa0atVKLN2TVqvFtGnTFJ8JlBMSEoKNGzcqcgo5NTUVTz75JDIyMsSSTfPy8pKbCWWDRfWmZu+ORMpo0A2WzuLFizFq1CgxNolWq8Xzzz8vO2OhVqsRFBQET09PqNVqsVylkpISZGdnV7kuau7cuTVqDo8cOYJx48ZBq9WKJXh7e8Pf39+k06cVFRXIy8tDeno6iouLxTLatGmDLVu2wMHBQSxVa/Xq1Zg1a5YYAwD8/f3h4+Nj0mOWl5fj1q1bSE9Pl10TN3ToUHz22WdibJLr168jNja2yp9ZA8QGi+oNGyyqT9U2WG5ubvD09FRsvU99Kisrw40bN2SvOnN0dMS2bdsQEhIiloyWmJiIiRMnijE6dOiAPn36mNSwiG7cuIFdu3YZfGi7urpiz5498PLykuTVKS8vR3R0tMEpTDc3NwwZMgTBwcGS3BRlZWVISkrCwYMHDZq31157Dc8++6wkq05OTg769+9vcDWjv78/oqKizLpasaioCPv378fp06fFEpYvX44BAwaIsVG0Wi2eeOIJ/Pbbb2IJdnZ28PHxgZOTU41nHS2FVqtFYWEhsrOzDX7OMthgUb3hJRhUn2Tf6X18fDB48GBF16RYAq1Wi4sXLyIhIUGy4Li4uBjz5s3DsmXL9Eab5pNPPhEjdO7cGQMHDhRjkzVu3BijR4/GunXrkJ2dfTfPz8/HN998gxdffFFvdPV27dpl0Fw5OTnh4YcfhpubmyQ3lUajQUREBJycnJCQkCCpffnll5g4caLRM07ffPONQXPl4+OD0aNHm7X2DKh8vlFRUVCr1Thx4oSk9sknn9S4wdqxY4dsc3XfffchIiICzs7OYsmqFRYW4tChQ/jjjz/EEpFFsP6pAbJmLmLg6emJuLg4m2uuAEClUqFNmzYYM2aMwam6hIQE/Pnnn5LMWOnp6Th27Jgkc3JyQp8+fSSZOezt7WWbNVPXJ8mN79mzp9nNlb7OnTujSZMmkiwnJwf79u2TZNWR+z4HDhxodnOlT25m8dixYzW+evarr74SI0RERKB///4211wB/38VYffu3cUSkUVgg0X1yeBdv1evXnB0dBRjm9K4cWN07NhRjGXXTxnjyJEjYoSQkBBFmwEACAgIMNhO4NKlS7h27Zokq87hw4fFCO3atRMjs7Vt21aMZL+2nOvXr+PSpUuSzNXVVZEtH/TZ29ujZcuWYiz787yXzMxMHD9+XJI5OTkhIiJCktmiyMhIm3/PIOvEBovqk0EH0Lx5czGySS1atBAjnDx5UoyMcvnyZTGCj4+PGCnC29tbjIyecblz547BVV4uLi4GszhKkFsjJfc6yUlLSxMj2eetBLnHNfb71Ce3nis4ONhgptQWaTQaBAUFiTFRvWODRfVJ8vtnb2/fYP4SFWeCgMrF5DUhd+VcbX2wyu2cLbdwX47cJp1Kz7LpyH2fcl9fjtzzkXs8Jcg9rtzP817kfnfkfsdsVUN6rmQ92GCRxbCFqwWNJXcllxFXRJGR5F5fWyb3u9OQXoOG9FzJejScTzQiIiKiOsIGi4iIiEhhbLCIiIiIFMYGi4iIiEhhbLCIiIiIFMYGi4iIiEhhbLCIiIiIFMYGi4iIiEhhbLCIiIiIFMYGi4iIiEhhbLDIYpSXl4uRzaqoqBAjq71VkCXepkTu1jHGssTncy9yvztyv2O2qiE9V7Iehv8qieqOpKMqKytDQUGBfmSzcnNzxQh+fn5iZBRnZ2cxQmlpqRgpQu5x5b6+HCcnJzEy+gbMppJ7XGO/T7lxcs9bCXKPK/f170Xud0fud8xWNaTnStaDDRbVJ4NPl5SUFDGySRcvXhQjdO3aVYyM0rJlSzHC9evXxchsWq0W2dnZYowWLVqIkSxnZ2f4+/tLssLCQuTn50syJch9nyEhIWIkS+75ZGdnmzUrVpWsrCwxkv153kvnzp0NZrHS0tJQXFwsyWxRcXEx0tPTxZio3rHBovpUKAYHDhxAXl6eGNuUtLQ0JCcnSzI7OztER0dLMmNFRkYanNZKTU1FYaHBy2sWuccMDQ2Fl5eXJKtOr169xAhnzpwRI7NUVFTg7NmzYozevXuLkSwvLy+EhoZKssLCQqSmpkoycxUWFhr8QaFSqRAZGSnJjOHl5YX7779fkpWWlmLv3r2SzNZotVokJiairKxMLBHVOzZYVJ8MOoCCggKsW7cOycnJNvemWVhYiKNHj2LTpk0GsyEjR45E06ZNJZmxfHx80L9/f0lWVlaG3bt3G3ydmiooKEBiYqIYY8yYMWJUrdGjR4sRjhw5IjuTU1OHDh1CTk6OJAsMDERERIQkq47c80pMTFTsFLZWq8Xu3bsNfsf79+8PHx8fSWasZ599Voxw5swZbNmyRdHX11Jcv34dW7Zswblz58QSkUWwvtWcZEsyAASIoY6dnR0aNWpkcOrDGpWXl1d5KszT0xM7duyQXUdjrKSkJMTFxYkxgoOD0a9fvxp/aGu1WqSmpiIxMdFgZtHX1xcJCQlwcXGR5NXRarV4+OGHkZSUJMkdHR3Rp08fhIWFQa1WS2rGysvLw4EDB2Rnr+bPn49x48aJcZUKCgowcOBAg8bEzc0NAwYMQEhIiMGsobGys7Oxd+9epKWliSWsX78e4eHhYmy0l156CZs3bxZjAJWvsdw6OGtUWFgou85OxmIAr4ghUV2o2TsEkTKqbbAaAo1Gg+XLl6NPnz5iyWSzZs3C6tWrxRgA4OHhAS8vL5Oa1dLSUmRnZxucFtT57LPPMHToUDG+p/Pnz2PEiBGyH5D29vbw8/ODo6OjWKqSVqtFXl6e7LorAIiIiMCaNWtMeu4A8PPPP+O5554TYwCV68l8fHxgb28vlqpUUVGBnJwc3L59WywBAB577DHMnTtXjE2Sn5+PsWPHclbn/7HBonrDBovqU4NusJydnfGf//wHgwYNEks1UlxcjCeeeAJHjx4VS4p7/vnn8corNf/c2rx5M15++WXFTmFWJTAwEBs2bKjx7OD777+PTz/9VIwV1717d6xatcqkxrIqN27cwIQJE3Dq1CmxZNOCg4PlZgXZYFG9qdlcPJEypgFw0w+aNm1a5ak0WxIeHo5ly5ahW7duYqnGNBoNoqOj8fvvv9fqVVXPPfccXnnllRqfIgOAdu3aISgoCAkJCbW2h1HLli2xatUqBATUvIfv1asXSktLa7Vp7dWrF7766iuTTrVWx8XFBaNHj0ZxcTH++OOPWm9i65tarcakSZMwaNAgJCQkiOUDAHaKIVFdYINF9cmgwdqzZw9atmyJgoICZGVlGSwCtmZeXl4YNGgQZsyYgVdffRWNGzcWh5jNwcEBI0eOhEqlQlJSkqLNi6+vLxYvXownn3zSrOZKp3379ujbty+SkpJw8+ZNsWyWuLg4fPrpp/D19RVLJlGpVLj//vsRGhqKw4cPK7bIHag8HTp16lQsWLBA8bVRGo0Gffv2RWxsLBwcHHDr1i2Dhf/WTKVSoXXr1nj44YexePFiDB8+HGfPnsXu3bvFoWywqN6Y/y5JVHMGpwhPnTp19y/5iooK3L592yaaLCcnJ7i6uirSmBgrIyMDK1aswLZt25CZmSmWjRYaGoq4uDiMGzdOsVkWfeXl5di8eTPWrl2LY8eO1bgpdHd3x5AhQzBhwgS0b99eLJutoKAAa9euxfr1681a4+Tv74/hw4djwoQJCAwMFMu1pqSkpMr1X9ZEpVLB3d0dDg4Okjw+Ph4zZsyQZOApQqpHdfduT2So2gaLlKHVanHlyhVkZGTI7hxeFWdnZ4SEhJi0z5W57ty5g5SUFOTl5Rl9akutVsPPzw/Nmzev8RWIpsrJyZHdF6w69vb2CAwMREBAQJ022g0FGyyyNBoxICLbolKpEBgYWKezJTXVqFEjdOrUSYwtjpeXV502nkRkfUy7bpmIiIiI7okNFhEREZHC2GARERERKYwNFtUnrvQlIiKbxAaLLAqvriIiIlvABouIiIhIYWywiIiIiBTGBouIiIhIYWywiIiIiBTGBouIiIhIYWywiIiIiBTGexES2bAzZ85g69atOH78ODIyMlBWViYOqZKTkxNCQkLQu3dvxMTEoEmTJuIQxeTn52Pbtm3Ys2cPLl68iLy8PHFIlVQqFZo0aYJOnTph2LBh6NmzZ61t93Ht2jVs3boVv/32G1JTU1FUVCQOqZJGo0FgYCC6du2KmJgYtG/fXhxCRDak0S5bjAAAIABJREFUdt6FiIxzBUBT/eD06dMoLS3Ff//7XyQlJeHq1auoqKjQH2KVHBwc0KxZM/Tu3Rt9+/aFvb29OERRFy5cwNy5c7F//36xVCMajQbjxo3DtGnT4OHhIZZrrLS0FF9++SU+//xz5Ofni+UaCQsLw5tvvolevXqJpRrLzc3F+++/j7Vr15rUpFanT58+mDVrFtq0aSOWFHXhwgXs2rULZ8+eRW5urli2Sh4eHggNDUVUVNTd1y8+Ph4zZswQRmIxgFfEkKgusMGi+mTQYE2cOBHfffcdCgsL9WOb4ufnh//5n//BuHHjoFarxbLZ1q1bh7feegslJSViyWz+/v5YunQpOnXqJJZMdvXqVUyZMgWnTp0SS4p49tln8corr8DOzryVECdPnsSUKVOQmZkplszm4OCAOXPmYOzYsWLJbKdOncKCBQtw4MABsWRTevfujTfeeAMnT55kg0UWRfl3dyLjTQPgph8cP35csRkCS3Xnzh0kJCTg6NGjGDRoEJydncUhNfbll1/i7bffRnl5uVhSRH5+PjZv3ozIyEgEBASIZaOlp6dj7NixSElJEUuKOXr0KDIyMhAVFVXjU4bHjh3D448/jpycHLGkiPLycuzatQsuLi7o1q2bWK4RrVaLL7/8Ei+88AIuX74slm1OWloa4uPj4eDggAsXLojlAwB2iiFRXWCDRfXJoMFqSNLT05GQkICYmBhFmqyff/4Zr7/+uhgrTncK96GHHoKbm+k/voKCAowfPx6XLl0SS4o7e/Ys7OzsEBkZKZbu6cqVK3j00UdNWg9WU/v370doaChat24tlkz273//Gx9++CG0Wq1YsllarVauuQLYYFE9qtmfdUTKMDhF2BBFRkbi22+/Net0YU5ODgYPHoxbt25Jco1Gg86dO6N169bw9PSERmPcdS1arRYlJSXIysrC2bNnZT+8+vTpg5UrV5o8O/Tuu+9i2bJlYozAwEB07twZ/v7+cHJyMvpxKyoqkJubi7/++gu///47CgoKJHU7Ozts2rQJHTp0kOTV0Wq1eOqpp2TXsLVu3Rrt27eHr68vHBwcjP4+y8rKcOvWLVy8eBEnTpwwmKn19PTE7t274eXlJclN8f3332P69Oli3JDxFCHVG+PeGYhqR5UNVrNmzdC2bVt4enqa1XhYitLSUmRnZ+P06dO4ceOGWMbs2bPx1FNPibHRFixYgC+//FKSubq6YtSoUfD29pbkNXHhwgVs377dYFZk5cqV6Nu3rySrzpUrV9C/f3+DU5g9e/as0SyTqLCwEJs2bcK1a9ckeb9+/fD1119Lsurs27fP4OehUqkQHR2tyKL0mzdv4ocffjBY2D9p0iS5dURGuXbtGgYPHmzQYNrb26Njx44ICgqCs7Oz0Q2hpdJqtSgsLERaWtrdi2KqwQaL6o11/0sja5cFwEcMH3jgAYSFhYmxTaioqMCePXtw4sQJSe7t7Y1ff/0Vjo6OktwYJSUliIiIMLhCLC4uDoGBgZLMHAcPHsShQ4ckWVRUFL744gtJVp0PPvgAH3/8sSRr1aoVYmJiJJk58vPz8c033xh88CYkJKB58+aSrCqTJ0/Grl27JFlkZCR69uwpycyRkZGB9evXSzJ3d3ccPnwYDg4OktwYc+bMMWgiPT09MXr06BqdyrUGubm52LhxI27fvi2WdNhgUb0x7/IaIvMYLDzq3LmzzTZXQOXpqgEDBsDX11eS37x5E7/88oskM9axY8cMmqumTZsq2lwBQNeuXQ2uyNu3b59JVyvu3r1bjNC9e3cxMourqytCQ0PFWPZryykpKcG+ffskmZ2dHbp27SrJzBUYGIimTaUTuLm5uTh27JgkM0ZpaSk2btwoxoiOjrbZ5gqobEiHDRsmxkQWgQ0W1SeD6RolLv+3dCqVCh07dhRj/Prrr2JklDNnzogRgoKCxMhsjo6OBo1hcXGx0VcClpeX4/z585JMo9HUygamcs//3LlzYiQrNTUVxcXFkszX1/f/2rvz6KjqPP3jT5LKypIESAwJIARkjcFBZbFBlgiMILQt0DbS3S6nVabHM/yGth0ZR8c5NKedVnBsHbEdBNSxnUwbDst0j0HZdRCE6MEmkX1fhGyEkECSon5/eOzD/daFVKW+oZLK+/Ufz6dOVd2qStXDvd+61aS9i41xu59uz2djdu/e7VeyMzIylJ6e7sgiUVvZTrQ+FCyEk2NxVXR0tDp37nxlFLHcPhAOHz5sRgEpLy83IyUlJZmRFe3atTOjgE9hUFVV5bf2KikpqVnWBLndT7fHyY3b5dyuzwa358nt9hvj9toxy3Aka0vbitaDgoVwcnyyejyeZvmwbYncvs1n7jUJlLnwXPp2L9n1EsqZ9pvrfrpdr9vj5CaU7QlWKPfzSm6vneb+tYCWpC1tK1oPChZaDLcPm0jVlrYVANoiChYAAIBlFCwAAADLKFgAAACWUbAAAAAso2ABAABYRsECAACwjIIFAABgGQULAADAMgoWAACAZRQstBhN+YmQ1qotbSsAtEUULISTo2XU19df19+BC6e6ujozcv3h30BER/v/GTdXgXO73pgYx292B6W5nm+36w3054nctsdtu21wu16357Mxbq8dt98njFRtaVvRegT/lwzY03DlP3w+n86cOXNlFLFOnz5tRurdu7cZBSQtLc2MdP78eTOywu16u3TpYkaukpOT/X6Ut6amxrUMhaq6utqMlJ6ebkau3LbHbbttcLtet+ezMW6vnW+++caMIlZb2la0HhQshJPfbpwvvvjCjCKO1+vVrl27zFh33nmnGQXk5ptvNiMdPXrUjEJ24cIFlZWVObJ27dqpV69ejuxqoqOjNWjQIEfm9Xp1/PhxR2bDkSNHzMjvtq+mV69eateunSMrKyvThQsXHJkNbs+T2/PZmH79+vkVs9LSUtfrjzRHjhxReXm5GQNhR8FCONWYwd69e/XZZ5+5HjqJBHV1dfrTn/6kc+fOOfJu3bpp1KhRjixQgwcPdv1wPXDggCML1fbt2/2el7y8PNdDalczYcIEM3K93lCUl5dr7969jiw6Olp33XWXI7uamJgYjRs3zpH5fD5t377dkYXqwIEDKi0tdWRpaWkaPHiwIwtETEyM7r//fjNWYWFhRO/dOX36tAoLC80YaBECW5QANI9TkjLMUJI6deqkPn36KCUlJagP8JbI5/Opvr5eZWVl2rt3r2pq/HqlXnnlFU2ZMsWMA/bv//7vWrhwoSOLi4vTlClT1K1bN0feFDt37tQnn3xixlqxYoVuueUWM76qiooKjRw5UrW1tY580KBBGjt2bMjPdUVFhVatWuVXYCdPnqxXX33VkV3Ll19+qfvuu8+MNXLkSN16661mHLTjx49rzZo1fmvxfvGLX+hv//ZvHVmgqqqqlJeX57eXMSoqStnZ2crKylJSUlLAa9FaKp/Pp5qaGh0/flwHDx40x6aFkp40Q+B6aN1/aWjtrlqw2pLJkyfrt7/9bUgffDU1NZowYYJOnjxpjtSnTx9HWQ3kdnw+n+rq6nT27FkVFxe7ro2bMmWKXnnlFTNu1OLFi/Xiiy+asTp27KicnBx17dpVCQkJAd1P6dvDjOfPn9fhw4dVUlIir9frmMfHx6uwsFA9evRw5I2ZM2eO1qxZY8ZKT0/XwIEDlZaWpri4uIDup8/nk9frVWVlpfbv36/9+/ebF1FmZqbWrl3rumA9UBs2bNDPfvYzq3sEWzkKFsKm8XcGoPm0+YI1fPhwvfXWW0pMTDRHQduxY4dmzpzpVzCaQ7du3bR69WqlpKSYo0Z5vV79+Mc/1rZt28xRs/j1r3/tevisMZWVlZo6dWqzrBEzxcTE6P3339dtt91mjoL23nvv6dlnnzXjiBcVFeVWLClYCBvWYAFhMn36dC1dutRKuZKk2267TS+//HLIh9kak5aWpuXLlzepXEnflonFixdr4MCB5si6OXPmNKlcSVJKSoqWL1/ut77NtpiYGL388stWypUkzZo1S6+99prfQv1I1qFDBz3wwANmDIQVBQstynPPPafMzEwzjig333yzli9frt/85jdKSEgwxyG55557tHTpUqWmppojK3JyclRQUKDs7GxzFJSUlBS9//77AS88D1ZcXJx+9atfac6cOeYoKNnZ2SooKFBOTo45siI1NVVLly7VPffcY45CMmnSJH300UeaMWOG36kxIklsbKzuv/9+rV27ttmeI6CpOESIcPI7RFhcXKzY2Fjt3LlTRUVFOnnyZLOcJ+l6i4uL04033qgRI0aob9++5ti6srIyLVq0SH/4wx/U0OA43ViTpKamavbs2XrooYesfmD7fD6tWbNGixYtsnZKgbvuuktPP/10yCXwSvX19Vq+fLneeOMNVVRUmOOgeTwezZgxQ3PnzlXnzp3NsVWVlZXasmWLSkpKVFVVZY5bpeTkZPXv31933nmnkpOTJUn5+fmaN2+ecUkOESJ8KFgIJ9eCZXuvTltWXl6uwsLCv5RV81tr15KUlKRevXppxIgRGjNmjOLj482LWHP58mV99tln2rx5s/bt2xdUEYiJiVF6eroGDx6s8ePHB72YPRiXLl3Sxo0btXXrVh06dMj1G6FXExcXp8zMTA0ZMkQTJ05Up06dzIsgBBQstDQULIQTBQuAFRQstDSswQIAALCMggUAAGAZBQsAAMAyChYAAIBlFCwAAADLKFgAAACWUbAAAAAso2ABAABYRsECAACwjIIFAABgGQULAADAMo8ZAIgsNTU12rVrl06ePKn6+npzfFXf/djzgAEDFBMTY46t8/l82r9/v/bv3x/0jz2npaUpNzdXqamp5tg6r9erkpKSoH/sOTY2VpmZmcrNzVVSUpI5BhBhKFhosc6ePavTp0+roaHBHLU6cXFx6tGjhzp06GCOmk1RUZHefPNNrV+/PqTHMDk5Wffee68effRRZWZmmuOQVVVVafny5crPz9epU6fMcVCGDRumhx56SBMmTFBUlN3fsj958qT+4z/+QytXrtS5c+fMccA8Ho/GjRunxx57TEOGDDHHzcLr9ero0aOqrKw0R61SSkqKevTocV2KP9BUdt+BgOCckpRxZbBlyxb913/9l1avXq1jx45dOYoIN998s2bMmKEZM2YoPj7eHFtRXV2t559/XitWrDBHIYmPj9eTTz6phx9+WNHRdlYXFBYW6plnnlF5ebk5CsmIESP04osvWimEly9f1rJly/TSSy/p0qVL5jgk9913n55//nm1b9/eHFnx+eefa/ny5dq0aVNQe9tag6SkJI0dO1YPPfSQbr31VuXn52vevHnmxRZKetIMgeuBgoVw8itYSUlJEfdB4KZbt27613/9V40YMcIcheT06dN68MEHtW/fPnNkzZQpU7Rw4UJ5PKHtAH/11Vf18ssvm7E1nTp10vLly5WTk2OOAtbQ0KBf/OIXWrNmjTmy5qabbtLbb7+tjAzHn0JIKioq9Mwzz+jDDz80RxFp0qRJuvXWWzV//nxzRMFC2FCwEE5+BastiY6O1r/8y79o1qxZ5qhJqqqqNG3aNB04cMAcWXfffffpxRdfbPJhuDfffFMvvPCCGVuXnJysgoICZWdnm6NG+Xw+/fKXv7S+J9BN7969VVBQoI4dO5qjoB0+fFg/+clPdOLECXMU0VJTU1VRUWHGFCyETdPeHQE72nTB+s6iRYt07733mnFQfD6ffv7zn6uwsNAcKSYmRllZWUpJSQlqr1NdXZ3OnDmjM2fOmCNJ0q9+9Ss98MADZtyozz//XD/60Y/k8/nMkVJTU5WRkaGEhISAy5vX69X58+d1/Phx1dXVmWP17dtXq1evVlxcnDm6pt///vf6p3/6JzOWJKWnpys9PT2o62xoaFBlZaVOnDghr9drjjVx4kQtXrzYjINy5swZ3XvvvTp9+rQ5aqsoWAibwN7BgOZxzYLVoUMHJScnt/qFrD6fTw0NDSorK3Ndw5OQkKA//vGP6tWrlzkK2MaNG/XII4+YsQYOHKiRI0cqMTHRHAWstLRUH3/8sb755htH3r59e23atCmob+55vV5NmjTJ7xBmhw4ddNddd6lHjx6OPBgNDQ3auXOnPvvsM3Okp556SrNnzzbjq6qoqNDo0aNVXV3tyG+44Qbddddd6tKliyMPRm1trT755BMVFxebIy1dulRjxowx44D4fD799Kc/1aeffmqOFBUVpc6dOyspKSng4tpS+Xw+1dTUqKyszLWkGyhYCJvA/zsL2Of6Tt+lSxeNGzdOXbt2NUet2uXLl7V//35t2LBBFy9e/Et+8eJFLViwQEuWLLni0sF5/fXXzUi5ubkaO3asGQetS5cumjZtmv77v/9bpaWlf8mrq6v1zjvvaM6cOVdc+to+/vhjv3KVkJCgGTNmhPwNS4/Ho2HDhikxMVEbNmxwzJYsWaJHHnkk4D1O77zzjl+5+u5xiI2NdeTBSkxM1Pjx4+XxeLRr1y7H7PXXX29ywSosLHQtV4MHD/7L4xJJamtr9dlnn/k9hkBLYeerQEDT+L3jp6SkaPr06RFXrqRv11z17dtX06ZN89srt379eh08eNCRBerEiRPasWOHI4uPj9fIkSMdWShiY2NdP/hXrlxpRtfkdvnhw4eHXK6ulJubqxtuuMGRlZeXa8uWLY7sWtzu55gxY0IuV1caOXKk3zdJd+zY0eS1U24F/fbbb9eYMWMirlxJ3xbVsWPH6tZbbzVHQItAwUI4+Z2nYPjw4X4fOpGmS5cuGjRokBk3+Rtf27dvNyNlZ2dbLQOSlJWV5Xc6gSNHjlx1jZYbt/var18/MwpZ3759zcj1tt2cOXNGR44ccWTt27dXVlaWIwtVbGys6+L7QO/nlU6fPq2ioiJHlpCQoGHDhjmySNQW3jPQOlGwEE5+DaBnz55mFJHctvOrr74yo4AcPXrUjNS5c2czsqJTp05mFPD5yi5cuOD3La+kpCQlJCQ4Mhvctt/tcXLjtj1u221DKPfzSrt37zYjde/e3W9PaSTyeDzq1q2bGQNhR8FCODlef7GxsW3mf6Juh8TKysrMKCBuC+eD+bZgMNyu98r1ZNfi9g0/23vZvuN2P91u343b9rhdnw1u1+v2fDbG7bVj7m2MZG1pW9F6ULDQYtg6O3hr4PZNrgC+EYUAuT2+kczttdOWHoO2tK1oPdrOJxoAAMB1QsECAACwjIIFAABgGQULAADAMgoWAACAZRQsAAAAyyhYAAAAllGwAAAALKNgAQAAWEbBAgAAsIyChRbD6/WaUcS6fPmyGbXanwpqiT9T4vbTMYFqidvTGLfXjttrLFK1pW1F6+H/VwlcP453xYaGBtXW1l4ZRayqqiozUnp6uhkFJDEx0YxUX19vRla4Xa/b7btJSEgwo4B/gDlYodxPt8u5XZ8NbtfrdvuNSUtLMyPX11ikakvbitaDgoVw8vt0OXDggBlFJLftvOWWW8woIL169TIjnT171oxC5vP5VFpaasbq2bOnGblKTEzUDTfc4Mhqa2t14cIFR2aD2/YHej/dLldaWhrSXrGrcbufbs9nYwYPHuy35+3YsWO6dOmSI4tEly5d0vHjx80YCDsKFsLpohls3bpV1dXVZhxRjh8/rq+//tqRRUdH6+6773ZkgRo2bJjfh+uhQ4es7w08fPiw33X2799fqampjuxaRowYYUYqLi42o5BcvnxZJSUlZqw77rjDjFylpqaqf//+jqy2tlaHDx92ZKGqra3VoUOHHFlUVJSGDRvmyAKRmpqq733ve46svr5eW7ZscWSRaNOmTWpoaDBjIOwoWAgnv4JVU1Oj/Px87dmzJ+LeNC9evKidO3dq5cqVfntDpk6dqszMTEcWqLS0NI0ePdqR1dfXa/369X6301Q1NTXauHGjGWvatGlmdE1ul9++fbvrnrGm2rZtmyoqKhxZZmZmUMXF7X5u3LhRNTU1ZtwkPp9P69ev9ztEOHr0aNfDfYGYPXu2GWn37t1as2aN1ce3pTh79qxWr17tWqaBlqD1reZEJDktyXnM6ArR0dHq0KGD6wLe1qahoUHnz583Y0lScnKyPvzwQ7/DZ8EoKirS9OnTzVjdu3fX6NGj1blzZ3MUEJ/Pp8OHD2vjxo1+61zS0tK0YcMGJSUlOfJr8fl8mjFjhoqKihx5fHy8Ro0apf79+ysmJsYxC1R1dbW2bt3qukdswYIFmjlzphlfVU1NjcaOHet3CK9jx44aM2aMevbs6bfXMFBlZWXatGmTjh07Zo70wQcfaMiQIWYcsDlz5mjNmjVmLOnbxziY56ql8vl8qq2tDfTw50JJT5ohcD007R0CsOOaBastiImJ0dKlSzVq1ChzFLRnn31W7733nhlL+vYQUkpKSlDlpa6uTqWlpVfda7N48WJNnDjRjBu1Z88eff/733dd4B4XF6e0tDQlJCQEXGAuX76sqqqqq+6luf322/X+++8HXdQLCwv1N3/zN2YsSUpKSlKXLl0UFxdnjq7K6/WqsrLSb+/ad2bNmqX58+ebcVCqq6s1Y8YM7dmzxxy1VRQshE1g72BA82jTBSsxMVG//e1vlZeXZ46a5NKlS5o1a5bf3qHmMHv2bD311FNmHLCVK1dq7ty5ZmxdZmamCgoKmrx38De/+Y3eeOMNM7ZuyJAheu+99xQfH2+OglZWVqaHH35Yf/7zn81RROvWrZvbYncKFsIm8P/OAvY9Kan9lUFGRkbEL3KXpL/6q7/SkiVLdNttt5mjJvN4PLr77rv15Zdfun3QWDN79mz98pe/DHgPk5v+/fsrKyvL6joxU8+ePfXuu+8qKyvLHAXsjjvuUF1dnXbs2GGOrBk+fLiWLFli7fBdUlKSfvCDH+jixYvatWtXsz2+LUVMTIx+9rOfKS8vTxs2bDDHWyWtNUPgeqBgIZz8CtYnn3yiG2+8URcuXNDZs2cj6uSjycnJGjNmjP7xH/9RTz31VJPXRV1LfHy8vv/978vn86moqMjqCRi7dOmil156SQ8++GBI5eo7AwcO1KhRo1RUVKTy8nJzHJJp06bpjTfeaPK5xb4TFRWl733ve+rXr5+2bdt21cOlTeHxePTzn/9cL7zwQpPOfXUtHo9Hd955p+69917FxsaqoqJClZWV5sVatV69eumHP/yhFi5cqMmTJ6ukpETr1q0zL0bBQtiE/i4JNJ3fIcKSkpK/HCbxer06d+5cRJSs2NhYJScnWykmgTp27JiWL1+uP/7xjzpz5ow5Dli/fv00bdo0zZw5U+3atTPHIWtoaNCqVauUn5+vnTt3NnmPS/v27TV+/Hg9/PDDysnJMcchu3Dhgt5//30VFBSEtMYpPT1dkydP1kMPPaTu3bub42ZTW1sbMXuHO3To4Hfi2vz8fM2bN8+RiUOECKPr924P+LtmwYIdPp9Px48f18mTJ4M69UViYqJ69uypTp06maNmU11drYMHD171G5duoqOjlZ6erp49ewa1iD8U5eXlrucFuxaPx6PMzEx169btuhbttoKChZbGYwYAIktUVJS6d+9+XfeWNFX79u2Vm5trxi1Op06drmvxBND6BPe9ZQAAADSKggUAAGAZBQsAAMAyChbCiZW+AICIRMFCi8K3qwAAkYCCBQAAYBkFCwAAwDIKFgAAgGUULAAAAMsoWAAAAJZRsAAAACzjtwiBCPb111/rf/7nf1RUVKQTJ06ovr7evMhVJSYmKjs7WyNGjNCUKVOUlpZmXsSaCxcu6E9/+pM2b96svXv3BvVjzzExMUpPT1dubq4mTpyoYcOGNdvpPs6ePas1a9Zo69atOnjwYFA/9hwbG6usrCwNGTJE99xzj/r3729eBEAEaZ53ISAw30hKvzL4+uuvdenSJa1bt047d+7UqVOn1NDQcOVFWqWEhAT16NFDd9xxh0aOHCmPp3n/b7N//34tWLBAmzZtMkdNEhsbqwceeEB///d/r44dO5rjJquvr9dbb72lxYsXB1WqrmXQoEF69tlnNXToUHPUZOfPn9eiRYv0+9//PqiSei2jR4/WM888oz59+pgjq/bt26d169appKREVVVV8vl85kValaioKCUnJ2vAgAHKy8v7y+OXn5+vefPmGZfWQklPmiFwPVCwEE5+BevRRx/Vf/7nfwa1Z6C1ueGGG/R3f/d3uv/++xUdbf8o/R/+8Ac9++yzqqurM0ch69q1q373u98pJyfHHAXt9OnTevzxx/XVV1+ZIytmz56tJ598MuTH+M9//rMef/xxnTp1yhyFLC4uTvPnz9eMGTPMUch2796tX//61/q///s/cxRRRo4cqXnz5mnXrl0ULLQoMWYAXEe/lNTuyqCoqCgi9lhdy4ULF7R+/Xrt3LlTY8eOVWJionmRJnvrrbf03HPPyev1miMrqqurtWrVKg0fPlxdu3Y1xwE7ceKEfvjDH+rAgQPmyJodO3bo5MmTysvLa/Ihw6KiIs2aNUsVFRXmyAqv16uPP/5Y7du315AhQ8xxk/h8Pi1dulRPPPGEjh49ao4jztGjR5Wfn6/4+Hjt3bvXHG+VtNYMgeuBgoVw8itYbcmxY8e0ceNGTZ482UrJWrt2rf7hH/7BjK2rr6/XRx99pKlTp6pDhw7muFG1tbV64IEHdPjwYXNkXXFxsTweT5MOF546dUozZ860dujyWrZs2aIBAwaod+/e5ihoL730khYtWtTqDwUGw+fzuZUriYKFMGraf+sAO/wOEbZFI0aM0DvvvKOYmKb/f6eiokJ5eXmqrKx05DExMcrNzVWfPn2UkpIS1G3U19frzJkzKi4udt3TNHLkSL399ttB7x1asGCB3nrrLTNW165dNXjwYGVkZCghIcEcX5XP51NVVZUOHz6sL7/80u/wcnR0tFatWqVBgwY58mvx+Xx68MEH9cknn5gj9e7dWwMHDlR6erpiY2PN8VV5vV5VVlZq//792rVrl99expTsWDoxAAAP3UlEQVSUFK1bt06pqamOPBgffPCBnnrqKTNuyzhEiLAJ7p0RsOuqBatHjx7q27evkpOTQ15D0xI0NDSotLRUxcXFKisrM8d6/vnn9dOf/tSMA/bCCy/ozTffdGTt2rXTfffdp06dOjnypti7d68+/PBDv70ib7/9tkaNGuXIruXkyZMaPXq0X7kYNmyYhg8f7siaora2VitXrtSZM2cc+Z133qnly5c7smvZsmWLHnzwQUcWFRWlv/7rv1bfvn0deVOUl5drxYoVunDhgiN/7LHH9PTTTzuyQH3zzTfKy8tTTU2NI4+NjdWgQYPUrVs3JSQkBF2IWxqfz6eLFy/q2LFjKi4ubuxLBxQshE3r/ktDa1cmye/Tf/z48Ro4cKAZR4TLly9r06ZN2rVrlyPv3LmzPv30U8XFxTnyQNTX1+v2229XVVWVI58+fbqysrIcWSi2bt2q7du3O7Lx48frd7/7nSO7lkWLFum1115zZNnZ2ZoyZYojC8X58+f17rvv+n3wbty4UT169HBkV/P444/ro48+cmRDhw7ViBEjHFkoTpw4oQ8++MCRdezYUZ9//nlQe8a+M3/+fC1btsyRpaSk6Ac/+IHVb362JOfOndOKFSv8XvtXoGAhbFr/rgG0Zn7HgXJzcyO2XEnfHq4aM2aM3zmlysrKtG7dOkcWqB07dvh9wHTt2tVquZKkIUOG+O1N3Lx5c1DfVly/fr0Z6bbbbjOjkHTo0EH9+vUz44Af37q6Om3evNmRRUdHW1uE/p2srCy/LwpUVVVpx44djiwQ9fX1KigoMGPdfffdEVuuJCk5OVl33323GQMtAgUL4eS3u+bmm282o4gTFRXlepqDTz/91IwCUlxcbEbq1q2bGYUsPj7erxheunRJhw4dcmRX4/V6tWfPHkfm8XiUkZHhyGzo3r27GamkpMSMXB06dEiXLl1yZGlpaYqPj3dkNrg9T27PZ2N2797tV7IzMjKUnu56BD6itJXtROtDwUI4OVZcR0dHq3PnzldGEcvtA6Gp36orLy83IyUlJZmRFe3a+X/p0+323VRVVfmtvUpKSmqWNUGh3E+3y7ldnw1uz5Pb7TfG7bVjluFI1pa2Fa0HBQvh5Phk9Xg8zfJh2xK5ncnd3GsSKHPhufTtXrLr5fLly2YUsOa6n27X6/Y4uQlle4IVyv28kttrpynruFqrtrStaD0oWGgx3D5sIlVb2lYAaIsoWAAAAJZRsAAAACyjYAEAAFhGwQIAALCMggUAAGAZBQsAAMAyChYAAIBlFCwAAADLKFgAAACWUbDQYjTlJ0Jaq7a0rQDQFlGwEE6OllFfX39dfwcunOrq6sxIiYmJZhSQ6Gj/P+PmKnBu1xsT4/jN7qA01/Ptdr2B/jyR2/a4bbcNbtfr9nw2xu1Ho91eY5HK7bcYgXAL/i8ZsMd75T98Pp/OnDlzZRSxTp8+bUbq06ePGQWkS5cuZqTz58+bkRXV1dVmpM6dO5uRq+TkZL8f5a2pqXEtQ6Fyu59paWlm5Mrt8XS7Phvcnie3229Mdna2Gbm+xiLVN998Y0ZA2FGwEE5+/8X+4osvzCjieL1effXVV2asO++804wCkpuba0Y6evSoGYWspqZGpaWljqxdu3auH+5uoqOjNWjQIEfm9Xp14sQJR2bDkSNHzEg5OTlm5KpXr15q166dIystLVVNTY0js8HteXJ7PhvTv39/v2JWWlqqY8eOObJIdOTIEZWXl5sxEHYULITTRTPYu3evtm3b5nroJBLU1dXpf//3f1VZWenIu3XrplGjRjmyQA0ePNhv70xpaakOHDjgyELl9ryMGzfO9ZDa1UyYMMGMXK83FOXl5dq7d68ji46OVl5eniO7mpiYGI0bN86R+Xw+bdu2zZGF6sCBA36FNS0tTYMHD3ZkgYiJidGPfvQjM9aHH34Y0Xt3Tp8+rcLCQjMGWoTAFiUAzeOMJNfjNp06ddJNN92klJSUJq1JaWkaGhp09uxZ7d2713VPyL/9279p6tSpZhyw1157TYsWLXJkcXFxmjp1qrKyshx5UxQVFWnLli1mrBUrVuiWW24x46sqLy/XqFGjVFtb68hzcnI0ZsyYoMqam4qKCq1atUrnzp1z5JMmTdJrr73myK7liy++0LRp08xYo0aN0pAhQ8w4aCdOnNDq1av91knNnTtXTzzxhCML1Llz55SXl+e3NycqKkrZ2dnq3r27EhISAl6L1lL5fD7V1tbq2LFjOnToUGPlfKGkJ80QuB5a918aWrurFqy2ZNKkSXr11VdD+uCrqanRhAkTdPLkSXOkm266SX369FFycrI8Ho85duXz+VRfX6+zZ8+qpKTEdT3PlClT9Morr5hxo15//XW99NJLZqyUlBTl5OQoIyND8fHxAT8ely9f1vnz53X48GEVFxfL63Us7VN8fLwKCwvVo0cPR96YOXPmaM2aNWasjIwMDRgwQGlpaYqNjQ34fjY0NOjcuXPav3+/9u3bZ46VmZmptWvXui5YD9T69ev16KOPNlY62hIKFsImsHcGoHm0+YI1bNgwLV26tMnfILzS9u3bNWvWLL+C0RyysrK0evVqpaammqNGNTQ06Mc//rG2b99ujprFggULNHPmTDNuVEVFhaZOndosa8RMMTExeu+99zR06FBzFLR3331X//zP/2zGbRUFC2HT+o+9AK3UtGnTtGzZMivlSpKGDh2qhQsXhnyYrTFdunTRsmXLmlSuJMnj8Wjx4sXq37+/ObLuiSeeaFK5kqTU1FQtW7bMb/G4bTExMVq4cKGVciVJP/nJT/Tqq6/6LdSPZO3bt9esWbPMGAgrChZalOeee04ZGRlmHFFycnK0dOlSvfjii0pISDDHIZk6daqWLFnS5PLTmEGDBqmgoKDJp5T4TmpqqvLz8wNeeB6s2NhYzZ8/X3PnzjVHQenTp48KCgr8vv1oS2pqqpYsWRLS+js3kydP1tq1azV9+vSADwu3Rh6PRzNmzNDatWsD/pYocL1wiBDh5HeIcM+ePYqOjtaOHTu0c+dOnTp1KiLWk8TGxqpHjx6644471K9fP3Ns3dmzZ7Vo0SIVFBSooaHBHActNTVVjz32mB555BG/c1mFwufzafXq1Vq0aJG1Uwrk5eXp6aefVu/evc1Rk9XX12vp0qV68803VVFRYY6D5vF4NG3aNM2dO9fvG6C2VVRUaMuWLSopKXE971Zr1LFjRw0YMECjRo1SSkqKJCk/P1/z5s0zLskhQoQPBQvh5FqwbH6At3WlpaUqLCxUUVGRTp48GVTZio+PV3Z2tkaMGKGxY8da39t2Ja/Xq61bt2rz5s3at29fUCf2jI6OVlpamnJzczVx4kTdeOON5kWsuXjxojZs2KCtW7fq4MGDQZ1B3OPxKDMzU0OGDNHEiROb/dBjW0PBQktDwUI4UbAAWEHBQkvDGiwAAADLKFgAAACWUbAAAAAso2ABAABYRsECAACwjIIFAABgGQULAADAMgoWAACAZRQsAAAAyyhYAAAAllGwAAAALKNgAQAAWEbBAgAAsIyCBQAAYBkFCwAAwDIKFgAAgGUULAAAAMsoWAAAAJZRsBBOUWYAAEAkoGChRYmKonMBAFo/ChYAAIBlFCwAAADLKFgAAACWUbAAAAAso2ABAABYRsECAACwjIIFAABgGQULAADAMgoWAACAZRQsAAAAyyhYAAAAllGwAAAALKNgAQAAWEbBAgAAsIyCBQAAYBkFCwAAwDIKFgAAgGUULAAAAMsoWAAAAJZRsAAAACyjYAEAAFhGwQIAALCMggUAAGAZBQsAAMAyChYAAIBlFCwAAADLKFgAAACWUbAAAAAso2ABAABYRsFCOEWZAQAAkYCChRYlKorOBQBo/ShYAAAAllGwAAAALKNgAQAAWEbBAgAAsIyCBQAAYBkFCwAAwDIKFgAAgGUULAAAAMsoWAAAAJZRsAAAACyjYAEAAFhGwQIAALCMggUAAGAZBQsAAMAyChYAAIBlFCwAAADLKFgAAACWUbAAAAAso2ABAABYRsECAACwjIIFAABgGQULAADAMgoWAACAZRQsAAAAyyhYAAAAllGwAAAALKNgAQAAWOYxAyCchg4dqpiYGDMGgGsqLS01IyCsKFhoUSoqKswIAIBWh0OEAAAAllGwAAAALKNgAQAAWBZlBsB11N4MwmS+pP9nhgGaJmmtGbZSGyXdaoYBukFSjRm2QkmSvjHDAO2UNMYMW6kJkgrMMED/JulZMwyTekmXzBC4HljkjnCqNoMwqTODINSq5WxHqLxmEIRqRUbBumwGQfAqcl4LtWYQhDpFzuMANBmHCAEAACyjYAEAAFhGwQIAALCMggUAAGAZBQsAAMAyChYAAIBlFCwAAADLKFgAAACWUbAAAAAso2ABAABYRsECAACwjIIFAABgGQULAADAMgoWAACAZRQsAAAAyyhYAAAAllGwAAAALKNgAQAAWEbBAgAAsIyCBQAAYBkFCwAAwDIKFgAAgGUULAAAAMsoWAAAAJZRsAAAACyjYAEAAFhGwQIAALCMggUAAGAZBQsAAMAyChYAAIBlFCwAAADLKFgAAACWUbAAAAAso2ABAABYRsECAACwjIIFAABgGQULAADAMgoWAACAZRQsAAAAyyhYAAAAllGwAAAALKNgAQAAWEbBAgAAsIyCBQAAYBkFCwAAwDIKFgAAgGUULAAAAMsoWAAAAJZRsAAAACyjYAEAAFhGwQIAALCMggUAAGAZBQsAAMAyChYAAIBlFCwAAADLKFgAAACWUbAAAAAso2ABAABYRsECAACwjIIFAABgGQULAADAMgoWAACAZRQsAAAAyyhYAAAAllGwAAAALKNgAQAAWEbBAgAAsIyCBQAAYBkFCwAAwDIKFgAAgGUULAAAAMsoWAAAAJZRsAAAACyjYAEAAFhGwQIAALCMggUAAGAZBQsAAMAyChYAAIBlFCwAAADLKFgAAACWUbAAAAAso2ABAABYRsECAACwjIIFAABgGQULAADAMgoWAACAZRQsAAAAyyhYAAAAllGwAAAALKNgAQAAWEbBAgAAsIyCBQAAYBkFCwAAwDIKFgAAgGUULAAAAMsoWAAAAJZRsAAAACyjYAEAAFhGwQIAALCMggUAAGAZBQsAAMAyChYAAIBlFCwAAADLKFgAAACWUbAAAAAso2ABAABYRsECAACwjIIFAABgGQULAADAMgoWAACAZRQsAAAAyyhYAAAAllGwAAAALKNgAQAAWEbBAgAAsIyCBQAAYBkFCwAAwDIKFgAAgGUULAAAAMsoWAAAAJZRsAAAACyjYAEAAFhGwQIAALCMggUAAGAZBQsAAMAyChYAAIBlFCwAAADLPGYAtEHnJZ0ywwBdMoNWrFRNfxx8ZtBK+dT0x6DUDFqxS2r643DeDIC26P8DwP8IKfOJisgAAAAASUVORK5CYII=;" vertex="1" parent="1">
          <mxGeometry x="-460" y="100" width="160" height="160" as="geometry" />
        </mxCell>
        <mxCell id="L91rZKPYXiFvtfqMxjaK-3" value="" style="endArrow=none;html=1;rounded=0;strokeWidth=4;fillColor=#ffe6cc;strokeColor=#000000;entryX=0.664;entryY=0.99;entryDx=0;entryDy=0;entryPerimeter=0;exitX=0.316;exitY=0.534;exitDx=0;exitDy=0;exitPerimeter=0;" edge="1" parent="1">
          <mxGeometry width="50" height="50" relative="1" as="geometry">
            <mxPoint x="-639.7251600000001" y="317.72" as="sourcePoint" />
            <mxPoint x="-353.7600000000002" y="256.4" as="targetPoint" />
            <Array as="points">
              <mxPoint x="-354" y="318" />
            </Array>
          </mxGeometry>
        </mxCell>
        <mxCell id="L91rZKPYXiFvtfqMxjaK-4" value="" style="endArrow=none;html=1;rounded=0;strokeWidth=4;fillColor=#ffe6cc;strokeColor=#FF0000;entryX=0.334;entryY=0.98;entryDx=0;entryDy=0;entryPerimeter=0;exitX=0.316;exitY=0.534;exitDx=0;exitDy=0;exitPerimeter=0;" edge="1" parent="1">
          <mxGeometry width="50" height="50" relative="1" as="geometry">
            <mxPoint x="-640" y="275" as="sourcePoint" />
            <mxPoint x="-406.55999999999995" y="259.79999999999995" as="targetPoint" />
            <Array as="points">
              <mxPoint x="-407" y="273" />
            </Array>
          </mxGeometry>
        </mxCell>
        <mxCell id="L91rZKPYXiFvtfqMxjaK-5" value="" style="endArrow=none;html=1;rounded=0;strokeWidth=4;fillColor=#ffe6cc;strokeColor=#FF9933;entryX=0.44;entryY=0.99;entryDx=0;entryDy=0;entryPerimeter=0;exitX=0.316;exitY=0.534;exitDx=0;exitDy=0;exitPerimeter=0;" edge="1" parent="1" target="L91rZKPYXiFvtfqMxjaK-2">
          <mxGeometry width="50" height="50" relative="1" as="geometry">
            <mxPoint x="-639" y="460" as="sourcePoint" />
            <mxPoint x="-353" y="398" as="targetPoint" />
            <Array as="points">
              <mxPoint x="-390" y="460" />
            </Array>
          </mxGeometry>
        </mxCell>
      </root>
    </mxGraphModel>
  </diagram>
</mxfile>
